<svg width="32" height="32" viewBox="0 0 32 32" fill="none" xmlns="http://www.w3.org/2000/svg">
    <path fill-rule="evenodd" clip-rule="evenodd" d="M22 10C22 9.72386 21.7761 9.5 21.5 9.5C21.2239 9.5 21 9.72386 21 10V14H17C16.7239 14 16.5 14.2239 16.5 14.5C16.5 14.7761 16.7239 15 17 15H21V19C21 19.2761 21.2239 19.5 21.5 19.5C21.7761 19.5 22 19.2761 22 19V15H26C26.2761 15 26.5 14.7761 26.5 14.5C26.5 14.2239 26.2761 14 26 14H22V10ZM26.2533 24.3V21.7H7.74667V24.3H26.2533ZM26.36 25C26.7135 25 27 24.7314 27 24.4V21.6C27 21.2686 26.7135 21 26.36 21H7.64C7.28654 21 7 21.2686 7 21.6V24.4C7 24.7314 7.28654 25 7.64 25H26.36Z" fill="#657181"/>
</svg>
