<svg width="24" height="24" viewBox="0 0 24 24" fill="none" xmlns="http://www.w3.org/2000/svg">
    <path d="M18.5625 12.1875H17.25V13.9375H18.5625C18.7812 13.9375 19 14.1562 19 14.375C19 14.6211 18.7812 14.8125 18.5625 14.8125H17.25V15.25C17.25 16.2344 16.457 17 15.5 17H15.0625V18.3125C15.0625 18.5586 14.8438 18.75 14.625 18.75C14.3789 18.75 14.1875 18.5586 14.1875 18.3125V17H12.4375V18.3125C12.4375 18.5586 12.2188 18.75 12 18.75C11.7539 18.75 11.5625 18.5586 11.5625 18.3125V17H9.8125V18.3125C9.8125 18.5586 9.59375 18.75 9.375 18.75C9.12891 18.75 8.9375 18.5586 8.9375 18.3125V17H8.5C7.51562 17 6.75 16.2344 6.75 15.25V14.8125H5.4375C5.19141 14.8125 5 14.6211 5 14.375C5 14.1562 5.19141 13.9375 5.4375 13.9375H6.75V12.1875H5.4375C5.19141 12.1875 5 11.9961 5 11.75C5 11.5312 5.19141 11.3125 5.4375 11.3125H6.75V9.5625H5.4375C5.19141 9.5625 5 9.37109 5 9.125C5 8.90625 5.19141 8.6875 5.4375 8.6875H6.75V8.25C6.75 7.29297 7.51562 6.5 8.5 6.5H8.9375V5.1875C8.9375 4.96875 9.12891 4.75 9.375 4.75C9.59375 4.75 9.8125 4.96875 9.8125 5.1875V6.5H11.5625V5.1875C11.5625 4.96875 11.7539 4.75 12 4.75C12.2188 4.75 12.4375 4.96875 12.4375 5.1875V6.5H14.1875V5.1875C14.1875 4.96875 14.3789 4.75 14.625 4.75C14.8438 4.75 15.0625 4.96875 15.0625 5.1875V6.5H15.5C16.457 6.5 17.25 7.29297 17.25 8.25V8.6875H18.5625C18.7812 8.6875 19 8.90625 19 9.125C19 9.37109 18.7812 9.5625 18.5625 9.5625H17.25V11.3125H18.5625C18.7812 11.3125 19 11.5312 19 11.75C19 11.9961 18.7812 12.1875 18.5625 12.1875ZM12.3828 13.9102C12.6016 13.8281 12.7109 13.5547 12.6016 13.3359L11.0703 9.83594C10.9336 9.50781 10.4141 9.50781 10.2773 9.83594L8.74609 13.3359C8.63672 13.5547 8.74609 13.8281 8.96484 13.9102C9.18359 14.0195 9.45703 13.9102 9.53906 13.6914L9.8125 13.0625H11.5352L11.8086 13.6914C11.8633 13.8555 12.0273 13.9375 12.2188 13.9375C12.2734 13.9375 12.3281 13.9375 12.3828 13.9102ZM14.625 13.5V10C14.625 9.78125 14.4062 9.5625 14.1875 9.5625C13.9414 9.5625 13.75 9.78125 13.75 10V13.5C13.75 13.7461 13.9414 13.9375 14.1875 13.9375C14.4062 13.9375 14.625 13.7461 14.625 13.5ZM10.1953 12.1875L10.6875 11.0938L11.1523 12.1875H10.1953Z" fill="#657990"/>
</svg>
