<svg width="16" height="15" viewBox="0 0 16 15" fill="none" xmlns="http://www.w3.org/2000/svg">
<path d="M4.375 13C3.66406 13 2.95312 12.3984 2.625 12.125C0.875 10.9219 0.328125 10.4844 0 10.2109V13.875C0 14.3672 0.382812 14.75 0.875 14.75H7.875C8.33984 14.75 8.75 14.3672 8.75 13.875V10.2109C8.39453 10.4844 7.875 10.9219 6.125 12.125C5.76953 12.3984 5.05859 13 4.375 13ZM7.875 7.75H0.875C0.382812 7.75 0 8.16016 0 8.625V9.0625C0.683594 9.60938 0.601562 9.60938 3.14453 11.4414C3.39062 11.6055 3.9375 12.125 4.375 12.125C4.8125 12.125 5.33203 11.6055 5.57812 11.5234C8.12109 9.69141 8.03906 9.69141 8.75 9.17188V8.625C8.75 8.16016 8.33984 7.75 7.875 7.75ZM14.875 5.125H6.125C5.63281 5.125 5.25 5.53516 5.25 6V6.875H7.875C8.77734 6.875 9.51562 7.58594 9.59766 8.46094H9.625V12.125H14.875C15.3398 12.125 15.75 11.7422 15.75 11.25V6C15.75 5.53516 15.3398 5.125 14.875 5.125ZM14 8.625H12.25V6.875H14V8.625ZM4.375 6C4.375 5.04297 5.14062 4.25 6.125 4.25H12.25V1.625C12.25 1.16016 11.8398 0.75 11.375 0.75H2.625C2.13281 0.75 1.75 1.16016 1.75 1.625V6.875H4.375V6Z" fill="#3980E8"/>
</svg>
