<?xml version="1.0" encoding="UTF-8"?>
<svg width="63.271mm" height="26.362mm" version="1.1" viewBox="0 0 63.271 26.362" xmlns="http://www.w3.org/2000/svg">
 <defs>
  <linearGradient id="paint0_linear" x1="119.57" x2="119.57" y1="-9.5196" y2="53.139" gradientUnits="userSpaceOnUse">
   <stop stop-color="#EBEFF4" offset="0"/>
   <stop stop-color="#fff" stop-opacity="0" offset="1"/>
  </linearGradient>
  <filter id="filter0_d" x="1.21" y=".059723" width="57.014" height="63.185" color-interpolation-filters="sRGB" filterUnits="userSpaceOnUse">
   <feFlood flood-opacity="0" result="BackgroundImageFix"/>
   <feColorMatrix in="SourceAlpha" values="0 0 0 0 0 0 0 0 0 0 0 0 0 0 0 0 0 0 127 0"/>
   <feOffset dy="1"/>
   <feGaussianBlur stdDeviation="4"/>
   <feColorMatrix values="0 0 0 0 0 0 0 0 0 0 0 0 0 0 0 0 0 0 0.12 0"/>
   <feBlend in2="BackgroundImageFix" result="effect1_dropShadow"/>
   <feBlend in="SourceGraphic" in2="effect1_dropShadow" result="shape"/>
  </filter>
  <filter id="filter1_d" x="19.634" y="8.2131" width="55.532" height="62.053" color-interpolation-filters="sRGB" filterUnits="userSpaceOnUse">
   <feFlood flood-opacity="0" result="BackgroundImageFix"/>
   <feColorMatrix in="SourceAlpha" values="0 0 0 0 0 0 0 0 0 0 0 0 0 0 0 0 0 0 127 0"/>
   <feOffset dy="1"/>
   <feGaussianBlur stdDeviation="4"/>
   <feColorMatrix values="0 0 0 0 0 0 0 0 0 0 0 0 0 0 0 0 0 0 0.12 0"/>
   <feBlend in2="BackgroundImageFix" result="effect1_dropShadow"/>
   <feBlend in="SourceGraphic" in2="effect1_dropShadow" result="shape"/>
  </filter>
  <filter id="filter0_d-7" x="1.21" y=".059723" width="57.014" height="63.185" color-interpolation-filters="sRGB" filterUnits="userSpaceOnUse">
   <feFlood flood-opacity="0" result="BackgroundImageFix"/>
   <feColorMatrix in="SourceAlpha" values="0 0 0 0 0 0 0 0 0 0 0 0 0 0 0 0 0 0 127 0"/>
   <feOffset dy="1"/>
   <feGaussianBlur stdDeviation="4"/>
   <feColorMatrix values="0 0 0 0 0 0 0 0 0 0 0 0 0 0 0 0 0 0 0.12 0"/>
   <feBlend in2="BackgroundImageFix" result="effect1_dropShadow"/>
   <feBlend in="SourceGraphic" in2="effect1_dropShadow" result="shape"/>
  </filter>
  <filter id="filter1_d-4" x="19.634" y="8.2131" width="55.532" height="62.053" color-interpolation-filters="sRGB" filterUnits="userSpaceOnUse">
   <feFlood flood-opacity="0" result="BackgroundImageFix"/>
   <feColorMatrix in="SourceAlpha" values="0 0 0 0 0 0 0 0 0 0 0 0 0 0 0 0 0 0 127 0"/>
   <feOffset dy="1"/>
   <feGaussianBlur stdDeviation="4"/>
   <feColorMatrix values="0 0 0 0 0 0 0 0 0 0 0 0 0 0 0 0 0 0 0.12 0"/>
   <feBlend in2="BackgroundImageFix" result="effect1_dropShadow"/>
   <feBlend in="SourceGraphic" in2="effect1_dropShadow" result="shape"/>
  </filter>
 </defs>
 <g transform="translate(-63.245 -110.19)" fill="none">
  <g transform="translate(-1.2917e-6)" image-rendering="auto">
   <g transform="matrix(.26458 0 0 .26458 63.245 125.91)">
    <path d="m118.41 0c-58.438 2.3862e-6 -118.41 40.234-118.41 40.234h239.14s-58.438-40.234-120.72-40.234z" color="#000000" color-rendering="auto" dominant-baseline="auto" fill="url(#paint0_linear)" image-rendering="auto" shape-rendering="auto" solid-color="#000000" stop-color="#000000" style="font-feature-settings:normal;font-variant-alternates:normal;font-variant-caps:normal;font-variant-east-asian:normal;font-variant-ligatures:normal;font-variant-numeric:normal;font-variant-position:normal;font-variation-settings:normal;inline-size:0;isolation:auto;mix-blend-mode:normal;shape-margin:0;shape-padding:0;text-decoration-color:#000000;text-decoration-line:none;text-decoration-style:solid;text-indent:0;text-orientation:mixed;text-transform:none;white-space:normal"/>
   </g>
   <g transform="matrix(.26458 0 0 .26458 81.837 110.17)">
    <path d="m87.758 32.271h-73.831c-2.9827 0-5.4007 2.418-5.4007 5.4008v39.106h79.231z" color="#000000" color-rendering="auto" dominant-baseline="auto" fill="#d7d8df" image-rendering="auto" shape-rendering="auto" solid-color="#000000" stop-color="#000000" style="font-feature-settings:normal;font-variant-alternates:normal;font-variant-caps:normal;font-variant-east-asian:normal;font-variant-ligatures:normal;font-variant-numeric:normal;font-variant-position:normal;font-variation-settings:normal;inline-size:0;isolation:auto;mix-blend-mode:normal;shape-margin:0;shape-padding:0;text-decoration-color:#000000;text-decoration-line:none;text-decoration-style:solid;text-indent:0;text-orientation:mixed;text-transform:none;white-space:normal"/>
    <g filter="url(#filter0_d)">
     <path transform="rotate(-6.9948 8.7529 11.09)" d="m12.753 11.09h28.851c2.216 0 4 1.784 4 4v35.938c0 2.216-1.784 4-4 4h-28.851c-2.216 0-4-1.784-4-4v-35.938c0-2.216 1.784-4 4-4z" color="#000000" color-rendering="auto" dominant-baseline="auto" fill="#fff" image-rendering="auto" shape-rendering="auto" solid-color="#000000" stop-color="#000000" style="font-feature-settings:normal;font-variant-alternates:normal;font-variant-caps:normal;font-variant-east-asian:normal;font-variant-ligatures:normal;font-variant-numeric:normal;font-variant-position:normal;font-variation-settings:normal;inline-size:0;isolation:auto;mix-blend-mode:normal;shape-margin:0;shape-padding:0;text-decoration-color:#000000;text-decoration-line:none;text-decoration-style:solid;text-indent:0;text-orientation:mixed;text-transform:none;white-space:normal"/>
    </g>
    <path transform="rotate(-6.9948 17.527 43.81)" d="m18.472 43.81h20.788c0.52348 0 0.94491 0.42143 0.94491 0.9449 0 0.52348-0.42143 0.9449-0.94491 0.9449h-20.788c-0.52348 0-0.94491-0.42143-0.94491-0.9449 0-0.52348 0.42143-0.9449 0.94491-0.9449z" color="#000000" color-rendering="auto" dominant-baseline="auto" fill="#edf1f6" image-rendering="auto" shape-rendering="auto" solid-color="#000000" stop-color="#000000" style="font-feature-settings:normal;font-variant-alternates:normal;font-variant-caps:normal;font-variant-east-asian:normal;font-variant-ligatures:normal;font-variant-numeric:normal;font-variant-position:normal;font-variation-settings:normal;inline-size:0;isolation:auto;mix-blend-mode:normal;shape-margin:0;shape-padding:0;text-decoration-color:#000000;text-decoration-line:none;text-decoration-style:solid;text-indent:0;text-orientation:mixed;text-transform:none;white-space:normal"/>
    <g filter="url(#filter1_d)">
     <path transform="rotate(4.4146 30.72 14.917)" d="m34.72 14.917h28.851c2.216 0 4 1.784 4 4v35.938c0 2.216-1.784 4-4 4h-28.851c-2.216 0-4-1.784-4-4v-35.938c0-2.216 1.784-4 4-4z" color="#000000" color-rendering="auto" dominant-baseline="auto" fill="#fff" image-rendering="auto" shape-rendering="auto" solid-color="#000000" stop-color="#000000" style="font-feature-settings:normal;font-variant-alternates:normal;font-variant-caps:normal;font-variant-east-asian:normal;font-variant-ligatures:normal;font-variant-numeric:normal;font-variant-position:normal;font-variation-settings:normal;inline-size:0;isolation:auto;mix-blend-mode:normal;shape-margin:0;shape-padding:0;text-decoration-color:#000000;text-decoration-line:none;text-decoration-style:solid;text-indent:0;text-orientation:mixed;text-transform:none;white-space:normal"/>
    </g>
    <g shape-rendering="auto">
     <path transform="rotate(4.4146 33.321 42.602)" d="m34.266 42.602h25.985c0.52348 0 0.9449 0.42143 0.9449 0.9449s-0.42143 0.9449-0.9449 0.9449h-25.985c-0.52348 0-0.9449-0.42143-0.9449-0.9449s0.42143-0.9449 0.9449-0.9449z" color="#000000" color-rendering="auto" dominant-baseline="auto" fill="#edf1f6" image-rendering="auto" solid-color="#000000" stop-color="#000000" style="font-feature-settings:normal;font-variant-alternates:normal;font-variant-caps:normal;font-variant-east-asian:normal;font-variant-ligatures:normal;font-variant-numeric:normal;font-variant-position:normal;font-variation-settings:normal;inline-size:0;isolation:auto;mix-blend-mode:normal;shape-margin:0;shape-padding:0;text-decoration-color:#000000;text-decoration-line:none;text-decoration-style:solid;text-indent:0;text-orientation:mixed;text-transform:none;white-space:normal"/>
     <path transform="rotate(4.4146 32.849 48.726)" d="m33.794 48.725h20.788c0.52348 0 0.94491 0.42143 0.94491 0.9449 0 0.52348-0.42143 0.9449-0.94491 0.9449h-20.788c-0.52348 0-0.94491-0.42143-0.94491-0.9449 0-0.52348 0.42143-0.9449 0.94491-0.9449z" color="#000000" color-rendering="auto" dominant-baseline="auto" fill="#edf1f6" image-rendering="auto" solid-color="#000000" stop-color="#000000" style="font-feature-settings:normal;font-variant-alternates:normal;font-variant-caps:normal;font-variant-east-asian:normal;font-variant-ligatures:normal;font-variant-numeric:normal;font-variant-position:normal;font-variation-settings:normal;inline-size:0;isolation:auto;mix-blend-mode:normal;shape-margin:0;shape-padding:0;text-decoration-color:#000000;text-decoration-line:none;text-decoration-style:solid;text-indent:0;text-orientation:mixed;text-transform:none;white-space:normal"/>
     <g fill="#e5e7ed">
      <path d="m87.759 42.052h-79.231v34.188c0 2.9976 2.4301 5.4277 5.4278 5.4277h68.376c2.9977 0 5.4278-2.43 5.4278-5.4277z" color="#000000" color-rendering="auto" dominant-baseline="auto" image-rendering="auto" solid-color="#000000" stop-color="#000000" style="font-feature-settings:normal;font-variant-alternates:normal;font-variant-caps:normal;font-variant-east-asian:normal;font-variant-ligatures:normal;font-variant-numeric:normal;font-variant-position:normal;font-variation-settings:normal;inline-size:0;isolation:auto;mix-blend-mode:normal;shape-margin:0;shape-padding:0;text-decoration-color:#000000;text-decoration-line:none;text-decoration-style:solid;text-indent:0;text-orientation:mixed;text-transform:none;white-space:normal"/>
      <path d="m58.47 29.101c0 1.0466-4.123 13.553-21.275 13.553 0 1.7475 21.275 0.8663 21.275 0.8663l1.2161-14.25z" color="#000000" color-rendering="auto" dominant-baseline="auto" image-rendering="auto" solid-color="#000000" stop-color="#000000" style="font-feature-settings:normal;font-variant-alternates:normal;font-variant-caps:normal;font-variant-east-asian:normal;font-variant-ligatures:normal;font-variant-numeric:normal;font-variant-position:normal;font-variation-settings:normal;inline-size:0;isolation:auto;mix-blend-mode:normal;shape-margin:0;shape-padding:0;text-decoration-color:#000000;text-decoration-line:none;text-decoration-style:solid;text-indent:0;text-orientation:mixed;text-transform:none;white-space:normal"/>
      <path d="m57.659 32.545c0-2.9828 2.418-5.4008 5.4007-5.4008h19.522c2.9828 0 5.4008 2.418 5.4008 5.4008v12.442h-30.323z" color="#000000" color-rendering="auto" dominant-baseline="auto" image-rendering="auto" solid-color="#000000" stop-color="#000000" style="font-feature-settings:normal;font-variant-alternates:normal;font-variant-caps:normal;font-variant-east-asian:normal;font-variant-ligatures:normal;font-variant-numeric:normal;font-variant-position:normal;font-variation-settings:normal;inline-size:0;isolation:auto;mix-blend-mode:normal;shape-margin:0;shape-padding:0;text-decoration-color:#000000;text-decoration-line:none;text-decoration-style:solid;text-indent:0;text-orientation:mixed;text-transform:none;white-space:normal"/>
     </g>
     <path d="m54.851 66.162c0.0459 0.0454 0.0822 0.0995 0.1071 0.1591 0.0248 0.0596 0.0376 0.1235 0.0376 0.1881s-0.0128 0.1285-0.0376 0.1881c-0.0249 0.0596-0.0612 0.1137-0.1071 0.1592-0.0455 0.0458-0.0995 0.0822-0.1591 0.107s-0.1236 0.0376-0.1881 0.0376c-0.0646 0-0.1285-0.0128-0.1881-0.0376s-0.1137-0.0612-0.1592-0.107l-6.0108-6.0158-6.0108 6.0158c-0.0455 0.0458-0.0996 0.0822-0.1592 0.107s-0.1235 0.0376-0.1881 0.0376c-0.0645 0-0.1285-0.0128-0.1881-0.0376s-0.1137-0.0612-0.1591-0.107c-0.0459-0.0455-0.0823-0.0996-0.1071-0.1592s-0.0376-0.1235-0.0376-0.1881 0.0128-0.1285 0.0376-0.1881 0.0612-0.1137 0.1071-0.1591l6.0157-6.0109-6.0157-6.0108c-0.0921-0.0921-0.1439-0.217-0.1439-0.3472 0-0.0645 0.0127-0.1284 0.0374-0.188 0.0247-0.0595 0.0609-0.1137 0.1065-0.1593s0.0997-0.0818 0.1593-0.1064c0.0596-0.0247 0.1234-0.0374 0.1879-0.0374 0.1303 0 0.2552 0.0517 0.3473 0.1438l6.0108 6.0157 6.0108-6.0157c0.0921-0.0921 0.217-0.1438 0.3473-0.1438 0.1302 0 0.2551 0.0517 0.3472 0.1438s0.1438 0.217 0.1438 0.3473c0 0.1302-0.0517 0.2551-0.1438 0.3472l-6.0157 6.0108z" color="#000000" color-rendering="auto" dominant-baseline="auto" fill="#d2d3da" image-rendering="auto" solid-color="#000000" stop-color="#000000" style="font-feature-settings:normal;font-variant-alternates:normal;font-variant-caps:normal;font-variant-east-asian:normal;font-variant-ligatures:normal;font-variant-numeric:normal;font-variant-position:normal;font-variation-settings:normal;inline-size:0;isolation:auto;mix-blend-mode:normal;shape-margin:0;shape-padding:0;text-decoration-color:#000000;text-decoration-line:none;text-decoration-style:solid;text-indent:0;text-orientation:mixed;text-transform:none;white-space:normal"/>
    </g>
   </g>
  </g>
  <g transform="translate(-42.597 23.483)">
   <g transform="matrix(.26458 0 0 .26458 63.245 125.91)">
    <path d="m118.41 0c-58.438 2.3862e-6 -118.41 40.234-118.41 40.234h239.14s-58.438-40.234-120.72-40.234z" color="#000000" color-rendering="auto" dominant-baseline="auto" fill="url(#paint0_linear)" image-rendering="auto" shape-rendering="auto" solid-color="#000000" stop-color="#000000" style="font-feature-settings:normal;font-variant-alternates:normal;font-variant-caps:normal;font-variant-east-asian:normal;font-variant-ligatures:normal;font-variant-numeric:normal;font-variant-position:normal;font-variation-settings:normal;inline-size:0;isolation:auto;mix-blend-mode:normal;shape-margin:0;shape-padding:0;text-decoration-color:#000000;text-decoration-line:none;text-decoration-style:solid;text-indent:0;text-orientation:mixed;text-transform:none;white-space:normal"/>
   </g>
   <g transform="matrix(.26458 0 0 .26458 81.837 110.17)">
    <path d="m87.758 32.271h-73.831c-2.9827 0-5.4007 2.418-5.4007 5.4008v39.106h79.231z" color="#000000" color-rendering="auto" dominant-baseline="auto" fill="#d7d8df" image-rendering="auto" shape-rendering="auto" solid-color="#000000" stop-color="#000000" style="font-feature-settings:normal;font-variant-alternates:normal;font-variant-caps:normal;font-variant-east-asian:normal;font-variant-ligatures:normal;font-variant-numeric:normal;font-variant-position:normal;font-variation-settings:normal;inline-size:0;isolation:auto;mix-blend-mode:normal;shape-margin:0;shape-padding:0;text-decoration-color:#000000;text-decoration-line:none;text-decoration-style:solid;text-indent:0;text-orientation:mixed;text-transform:none;white-space:normal"/>
    <g filter="url(#filter0_d-7)">
     <path transform="rotate(-6.9948 8.7529 11.09)" d="m12.753 11.09h28.851c2.216 0 4 1.784 4 4v35.938c0 2.216-1.784 4-4 4h-28.851c-2.216 0-4-1.784-4-4v-35.938c0-2.216 1.784-4 4-4z" color="#000000" color-rendering="auto" dominant-baseline="auto" fill="#fff" image-rendering="auto" shape-rendering="auto" solid-color="#000000" stop-color="#000000" style="font-feature-settings:normal;font-variant-alternates:normal;font-variant-caps:normal;font-variant-east-asian:normal;font-variant-ligatures:normal;font-variant-numeric:normal;font-variant-position:normal;font-variation-settings:normal;inline-size:0;isolation:auto;mix-blend-mode:normal;shape-margin:0;shape-padding:0;text-decoration-color:#000000;text-decoration-line:none;text-decoration-style:solid;text-indent:0;text-orientation:mixed;text-transform:none;white-space:normal"/>
    </g>
    <path transform="rotate(-6.9948 17.527 43.81)" d="m18.472 43.81h20.788c0.52348 0 0.94491 0.42143 0.94491 0.9449 0 0.52348-0.42143 0.9449-0.94491 0.9449h-20.788c-0.52348 0-0.94491-0.42143-0.94491-0.9449 0-0.52348 0.42143-0.9449 0.94491-0.9449z" color="#000000" color-rendering="auto" dominant-baseline="auto" fill="#edf1f6" image-rendering="auto" shape-rendering="auto" solid-color="#000000" stop-color="#000000" style="font-feature-settings:normal;font-variant-alternates:normal;font-variant-caps:normal;font-variant-east-asian:normal;font-variant-ligatures:normal;font-variant-numeric:normal;font-variant-position:normal;font-variation-settings:normal;inline-size:0;isolation:auto;mix-blend-mode:normal;shape-margin:0;shape-padding:0;text-decoration-color:#000000;text-decoration-line:none;text-decoration-style:solid;text-indent:0;text-orientation:mixed;text-transform:none;white-space:normal"/>
    <g filter="url(#filter1_d-4)">
     <path transform="rotate(4.4146 30.72 14.917)" d="m34.72 14.917h28.851c2.216 0 4 1.784 4 4v35.938c0 2.216-1.784 4-4 4h-28.851c-2.216 0-4-1.784-4-4v-35.938c0-2.216 1.784-4 4-4z" color="#000000" color-rendering="auto" dominant-baseline="auto" fill="#fff" image-rendering="auto" shape-rendering="auto" solid-color="#000000" stop-color="#000000" style="font-feature-settings:normal;font-variant-alternates:normal;font-variant-caps:normal;font-variant-east-asian:normal;font-variant-ligatures:normal;font-variant-numeric:normal;font-variant-position:normal;font-variation-settings:normal;inline-size:0;isolation:auto;mix-blend-mode:normal;shape-margin:0;shape-padding:0;text-decoration-color:#000000;text-decoration-line:none;text-decoration-style:solid;text-indent:0;text-orientation:mixed;text-transform:none;white-space:normal"/>
    </g>
    <g shape-rendering="auto">
     <path transform="rotate(4.4146 33.321 42.602)" d="m34.266 42.602h25.985c0.52348 0 0.9449 0.42143 0.9449 0.9449s-0.42143 0.9449-0.9449 0.9449h-25.985c-0.52348 0-0.9449-0.42143-0.9449-0.9449s0.42143-0.9449 0.9449-0.9449z" color="#000000" color-rendering="auto" dominant-baseline="auto" fill="#edf1f6" image-rendering="auto" solid-color="#000000" stop-color="#000000" style="font-feature-settings:normal;font-variant-alternates:normal;font-variant-caps:normal;font-variant-east-asian:normal;font-variant-ligatures:normal;font-variant-numeric:normal;font-variant-position:normal;font-variation-settings:normal;inline-size:0;isolation:auto;mix-blend-mode:normal;shape-margin:0;shape-padding:0;text-decoration-color:#000000;text-decoration-line:none;text-decoration-style:solid;text-indent:0;text-orientation:mixed;text-transform:none;white-space:normal"/>
     <path transform="rotate(4.4146 32.849 48.726)" d="m33.794 48.725h20.788c0.52348 0 0.94491 0.42143 0.94491 0.9449 0 0.52348-0.42143 0.9449-0.94491 0.9449h-20.788c-0.52348 0-0.94491-0.42143-0.94491-0.9449 0-0.52348 0.42143-0.9449 0.94491-0.9449z" color="#000000" color-rendering="auto" dominant-baseline="auto" fill="#edf1f6" image-rendering="auto" solid-color="#000000" stop-color="#000000" style="font-feature-settings:normal;font-variant-alternates:normal;font-variant-caps:normal;font-variant-east-asian:normal;font-variant-ligatures:normal;font-variant-numeric:normal;font-variant-position:normal;font-variation-settings:normal;inline-size:0;isolation:auto;mix-blend-mode:normal;shape-margin:0;shape-padding:0;text-decoration-color:#000000;text-decoration-line:none;text-decoration-style:solid;text-indent:0;text-orientation:mixed;text-transform:none;white-space:normal"/>
     <g fill="#e5e7ed">
      <path d="m87.759 42.052h-79.231v34.188c0 2.9976 2.4301 5.4277 5.4278 5.4277h68.376c2.9977 0 5.4278-2.43 5.4278-5.4277z" color="#000000" color-rendering="auto" dominant-baseline="auto" image-rendering="auto" solid-color="#000000" stop-color="#000000" style="font-feature-settings:normal;font-variant-alternates:normal;font-variant-caps:normal;font-variant-east-asian:normal;font-variant-ligatures:normal;font-variant-numeric:normal;font-variant-position:normal;font-variation-settings:normal;inline-size:0;isolation:auto;mix-blend-mode:normal;shape-margin:0;shape-padding:0;text-decoration-color:#000000;text-decoration-line:none;text-decoration-style:solid;text-indent:0;text-orientation:mixed;text-transform:none;white-space:normal"/>
      <path d="m58.47 29.101c0 1.0466-4.123 13.553-21.275 13.553 0 1.7475 21.275 0.8663 21.275 0.8663l1.2161-14.25z" color="#000000" color-rendering="auto" dominant-baseline="auto" image-rendering="auto" solid-color="#000000" stop-color="#000000" style="font-feature-settings:normal;font-variant-alternates:normal;font-variant-caps:normal;font-variant-east-asian:normal;font-variant-ligatures:normal;font-variant-numeric:normal;font-variant-position:normal;font-variation-settings:normal;inline-size:0;isolation:auto;mix-blend-mode:normal;shape-margin:0;shape-padding:0;text-decoration-color:#000000;text-decoration-line:none;text-decoration-style:solid;text-indent:0;text-orientation:mixed;text-transform:none;white-space:normal"/>
      <path d="m57.659 32.545c0-2.9828 2.418-5.4008 5.4007-5.4008h19.522c2.9828 0 5.4008 2.418 5.4008 5.4008v12.442h-30.323z" color="#000000" color-rendering="auto" dominant-baseline="auto" image-rendering="auto" solid-color="#000000" stop-color="#000000" style="font-feature-settings:normal;font-variant-alternates:normal;font-variant-caps:normal;font-variant-east-asian:normal;font-variant-ligatures:normal;font-variant-numeric:normal;font-variant-position:normal;font-variation-settings:normal;inline-size:0;isolation:auto;mix-blend-mode:normal;shape-margin:0;shape-padding:0;text-decoration-color:#000000;text-decoration-line:none;text-decoration-style:solid;text-indent:0;text-orientation:mixed;text-transform:none;white-space:normal"/>
     </g>
     <path d="m54.851 66.162c0.0459 0.0454 0.0822 0.0995 0.1071 0.1591 0.0248 0.0596 0.0376 0.1235 0.0376 0.1881s-0.0128 0.1285-0.0376 0.1881c-0.0249 0.0596-0.0612 0.1137-0.1071 0.1592-0.0455 0.0458-0.0995 0.0822-0.1591 0.107s-0.1236 0.0376-0.1881 0.0376c-0.0646 0-0.1285-0.0128-0.1881-0.0376s-0.1137-0.0612-0.1592-0.107l-6.0108-6.0158-6.0108 6.0158c-0.0455 0.0458-0.0996 0.0822-0.1592 0.107s-0.1235 0.0376-0.1881 0.0376c-0.0645 0-0.1285-0.0128-0.1881-0.0376s-0.1137-0.0612-0.1591-0.107c-0.0459-0.0455-0.0823-0.0996-0.1071-0.1592s-0.0376-0.1235-0.0376-0.1881 0.0128-0.1285 0.0376-0.1881 0.0612-0.1137 0.1071-0.1591l6.0157-6.0109-6.0157-6.0108c-0.0921-0.0921-0.1439-0.217-0.1439-0.3472 0-0.0645 0.0127-0.1284 0.0374-0.188 0.0247-0.0595 0.0609-0.1137 0.1065-0.1593s0.0997-0.0818 0.1593-0.1064c0.0596-0.0247 0.1234-0.0374 0.1879-0.0374 0.1303 0 0.2552 0.0517 0.3473 0.1438l6.0108 6.0157 6.0108-6.0157c0.0921-0.0921 0.217-0.1438 0.3473-0.1438 0.1302 0 0.2551 0.0517 0.3472 0.1438s0.1438 0.217 0.1438 0.3473c0 0.1302-0.0517 0.2551-0.1438 0.3472l-6.0157 6.0108z" color="#000000" color-rendering="auto" dominant-baseline="auto" fill="#d2d3da" image-rendering="auto" solid-color="#000000" stop-color="#000000" style="font-feature-settings:normal;font-variant-alternates:normal;font-variant-caps:normal;font-variant-east-asian:normal;font-variant-ligatures:normal;font-variant-numeric:normal;font-variant-position:normal;font-variation-settings:normal;inline-size:0;isolation:auto;mix-blend-mode:normal;shape-margin:0;shape-padding:0;text-decoration-color:#000000;text-decoration-line:none;text-decoration-style:solid;text-indent:0;text-orientation:mixed;text-transform:none;white-space:normal"/>
    </g>
   </g>
  </g>
 </g>
</svg>
