<svg width="21" height="24" viewBox="0 0 21 24" fill="none" xmlns="http://www.w3.org/2000/svg">
<path d="M11.125 8.46875C11.125 8.85156 11.3984 9.125 11.7812 9.125H15.5V18.0938C15.5 18.4766 15.1992 18.75 14.8438 18.75H5.65625C5.27344 18.75 5 18.4766 5 18.0938V5.40625C5 5.05078 5.27344 4.75 5.65625 4.75H11.125V8.46875ZM13.2031 14.2656C13.4766 13.9922 13.2852 13.5 12.9023 13.5H11.125V11.3125C11.125 11.0938 10.9062 10.875 10.6875 10.875H9.8125C9.56641 10.875 9.375 11.0938 9.375 11.3125V13.5H7.57031C7.1875 13.5 6.99609 13.9922 7.26953 14.2656L9.89453 16.8906C10.0859 17.0547 10.3867 17.0547 10.5781 16.8906L13.2031 14.2656ZM15.3086 7.62109C15.418 7.75781 15.5 7.92188 15.5 8.08594V8.25H12V4.75H12.1641C12.3281 4.75 12.4922 4.83203 12.6289 4.94141L15.3086 7.62109Z" fill="white"/>
</svg>
