<svg width="366" height="248" viewBox="0 0 366 248" fill="none" xmlns="http://www.w3.org/2000/svg">
<g clip-path="url(#clip0_29484_131202)">
<path d="M292.444 100.484C292.365 100.484 292.287 100.46 292.221 100.414L184.122 25.1304C183.448 24.6634 182.555 24.6649 181.883 25.1343L74.5619 100.413C74.385 100.537 74.1412 100.494 74.0174 100.317C73.8938 100.14 73.9366 99.8971 74.1129 99.7731L181.434 24.4941C182.375 23.8372 183.625 23.8351 184.569 24.489L292.668 99.7723C292.845 99.8958 292.889 100.139 292.765 100.317C292.692 100.422 292.572 100.484 292.444 100.484V100.484V100.484Z" fill="#3F3D56"/>
<path d="M80.6943 103.152L183.108 27.2515L286.298 108.553L188.385 166.598L135.226 154.481L80.6943 103.152Z" fill="#E6E6E6"/>
<path d="M139.713 202.45H89.1182C87.8128 202.452 86.7529 201.395 86.751 200.089C86.749 198.784 87.8058 197.724 89.1112 197.722H139.713C141.018 197.72 142.078 198.777 142.08 200.082C142.082 201.388 141.025 202.448 139.72 202.45H139.713Z" fill="#3980E8"/>
<path d="M107.27 192.287H89.1182C87.8128 192.289 86.7529 191.232 86.751 189.927C86.749 188.621 87.8058 187.562 89.1112 187.56H107.271C108.576 187.558 109.636 188.614 109.638 189.92C109.64 191.225 108.583 192.285 107.277 192.287H107.271H107.27Z" fill="#3980E8"/>
<path d="M184.548 145.428C184.163 145.429 183.782 145.354 183.426 145.209L120.265 119.001V36.9671C120.266 35.4567 121.49 34.2327 123.001 34.231H244.171C245.682 34.2327 246.906 35.4567 246.908 36.9671V119.058L246.789 119.109L185.703 145.196C185.337 145.35 184.944 145.429 184.548 145.428V145.428Z" fill="white"/>
<path d="M184.548 145.624C184.138 145.624 183.731 145.545 183.352 145.39L120.069 119.132V36.9672C120.071 35.3489 121.383 34.0375 123.001 34.0356H244.172C245.79 34.0375 247.101 35.3489 247.103 36.9672V119.188L185.78 145.376C185.39 145.54 184.971 145.624 184.548 145.624V145.624ZM120.851 118.61L183.65 144.667C184.236 144.905 184.892 144.901 185.475 144.656L246.321 118.672V36.9672C246.32 35.7805 245.358 34.8188 244.172 34.8174H123.001C121.814 34.8188 120.852 35.7805 120.851 36.9672L120.851 118.61V118.61Z" fill="#3F3D56"/>
<path d="M291.663 99.7021H291.584L246.712 118.863L185.318 145.079C184.833 145.282 184.288 145.285 183.801 145.086L120.46 118.808L74.4857 99.7334L74.4154 99.7022H74.3372C72.8268 99.7038 71.6028 100.928 71.6011 102.438V221.264C71.6028 222.774 72.8268 223.998 74.3372 224H291.663C293.173 223.998 294.397 222.774 294.399 221.264V102.438C294.397 100.928 293.173 99.7038 291.663 99.7021ZM293.617 221.264C293.617 222.343 292.742 223.218 291.663 223.218H74.3372C73.258 223.218 72.3833 222.343 72.3828 221.264V102.438C72.3843 101.388 73.2137 100.526 74.2629 100.484L120.46 119.652L183.5 145.81C184.183 146.087 184.947 146.083 185.627 145.798L246.712 119.711L291.741 100.484C292.788 100.529 293.615 101.39 293.617 102.438V221.264Z" fill="#3F3D56"/>
<path d="M183.917 122.167C181.585 122.171 179.315 121.417 177.449 120.019L177.334 119.932L152.978 101.284C148.234 97.6495 147.335 90.8575 150.97 86.1137C154.604 81.37 161.396 80.4709 166.14 84.1056L181.916 96.2022L219.197 47.5828C222.833 42.8404 229.625 41.9437 234.367 45.5797L234.368 45.5801L234.136 45.8949L234.374 45.5847C239.11 49.2247 240.006 56.0116 236.376 60.7559L192.525 117.944C190.47 120.615 187.287 122.176 183.917 122.167V122.167Z" fill="#3980E8"/>
</g>
<defs>
<clipPath id="clip0_29484_131202">
<rect width="222.798" height="200" fill="white" transform="translate(71.6011 24)"/>
</clipPath>
</defs>
</svg>
