<svg width="16" height="16" viewBox="0 0 16 16" fill="none" xmlns="http://www.w3.org/2000/svg">
  <path d="M8.125 2C4.74258 2 2 4.74258 2 8.125C2 11.5074 4.74258 14.25 8.125 14.25C11.5074 14.25 14.25 11.5074 14.25 8.125C14.25 4.74258 11.5074 2 8.125 2ZM10.3863 10.452L9.48398 10.4479L8.125 8.82773L6.76738 10.4465L5.86367 10.4506C5.80352 10.4506 5.7543 10.4027 5.7543 10.3412C5.7543 10.3152 5.76387 10.2906 5.78027 10.2701L7.55898 8.15098L5.78027 6.0332C5.76375 6.01317 5.75459 5.98808 5.7543 5.96211C5.7543 5.90195 5.80352 5.85273 5.86367 5.85273L6.76738 5.85684L8.125 7.47695L9.48262 5.8582L10.385 5.8541C10.4451 5.8541 10.4943 5.90195 10.4943 5.96348C10.4943 5.98945 10.4848 6.01406 10.4684 6.03457L8.69238 8.15234L10.4697 10.2715C10.4861 10.292 10.4957 10.3166 10.4957 10.3426C10.4957 10.4027 10.4465 10.452 10.3863 10.452Z" fill="#FF5645"/>
</svg>
