<svg width="16" height="16" viewBox="0 0 16 16" fill="none" xmlns="http://www.w3.org/2000/svg">
  <path d="M8 2C4.68661 2 2 4.68661 2 8C2 11.3134 4.68661 14 8 14C11.3134 14 14 11.3134 14 8C14 4.68661 11.3134 2 8 2ZM10.5915 6.04063L7.77098 9.95134C7.73156 10.0064 7.67959 10.0512 7.61938 10.0821C7.55918 10.1131 7.49246 10.1292 7.42478 10.1292C7.35709 10.1292 7.29038 10.1131 7.23017 10.0821C7.16996 10.0512 7.11799 10.0064 7.07857 9.95134L5.40848 7.63705C5.35759 7.56607 5.40848 7.46696 5.49554 7.46696H6.12366C6.26027 7.46696 6.39018 7.53259 6.47054 7.64509L7.42411 8.9683L9.52946 6.04866C9.60982 5.9375 9.73839 5.87054 9.87634 5.87054H10.5045C10.5915 5.87054 10.6424 5.96964 10.5915 6.04063Z" fill="#52C41A"/>
</svg>
