<svg width="16" height="16" viewBox="0 0 16 16" fill="none" xmlns="http://www.w3.org/2000/svg">
  <path d="M8.125 2C4.74258 2 2 4.74258 2 8.125C2 11.5074 4.74258 14.25 8.125 14.25C11.5074 14.25 14.25 11.5074 14.25 8.125C14.25 4.74258 11.5074 2 8.125 2ZM7.6875 5.17188C7.6875 5.11172 7.73672 5.0625 7.79688 5.0625H8.45312C8.51328 5.0625 8.5625 5.11172 8.5625 5.17188V8.89062C8.5625 8.95078 8.51328 9 8.45312 9H7.79688C7.73672 9 7.6875 8.95078 7.6875 8.89062V5.17188ZM8.125 11.1875C7.95327 11.184 7.78976 11.1133 7.66955 10.9906C7.54934 10.8679 7.48201 10.703 7.48201 10.5312C7.48201 10.3595 7.54934 10.1946 7.66955 10.0719C7.78976 9.94919 7.95327 9.87851 8.125 9.875C8.29673 9.87851 8.46024 9.94919 8.58045 10.0719C8.70066 10.1946 8.76799 10.3595 8.76799 10.5312C8.76799 10.703 8.70066 10.8679 8.58045 10.9906C8.46024 11.1133 8.29673 11.184 8.125 11.1875Z" fill="#FAAD14"/>
</svg>
