<svg width="24" height="24" viewBox="0 0 24 24" fill="none" xmlns="http://www.w3.org/2000/svg">
<path d="M14.521 9.125C14.1382 6.69141 13.1812 4.96875 12.1147 4.96875C11.021 4.96875 10.0913 6.69141 9.68115 9.125H14.521ZM9.48975 11.75C9.48975 12.3789 9.51709 12.9531 9.57178 13.5H14.6304C14.6851 12.9531 14.7124 12.3789 14.7124 11.75C14.7124 11.1484 14.6851 10.5742 14.6304 10H9.57178C9.51709 10.5742 9.48975 11.1484 9.48975 11.75ZM18.3491 9.125C17.5835 7.29297 15.9976 5.84375 14.0288 5.26953C14.7124 6.19922 15.1499 7.59375 15.396 9.125H18.3491ZM10.1733 5.26953C8.20459 5.84375 6.61865 7.29297 5.85303 9.125H8.80615C9.05225 7.59375 9.48975 6.19922 10.1733 5.26953ZM18.6499 10H15.5054C15.5601 10.5742 15.6147 11.1758 15.6147 11.75C15.6147 12.3516 15.5601 12.9258 15.5054 13.5H18.6499C18.7866 12.9531 18.8687 12.3789 18.8687 11.75C18.8687 11.1484 18.7866 10.5742 18.6499 10ZM8.61475 11.75C8.61475 11.1758 8.64209 10.5742 8.69678 10H5.55225C5.41553 10.5742 5.3335 11.1484 5.3335 11.75C5.3335 12.3789 5.41553 12.9531 5.55225 13.5H8.69678C8.64209 12.9258 8.61475 12.3516 8.61475 11.75ZM9.68115 14.375C10.0913 16.8359 11.021 18.5312 12.1147 18.5312C13.1812 18.5312 14.1382 16.8359 14.521 14.375H9.68115ZM14.0288 18.2578C15.9976 17.6836 17.5835 16.2344 18.3491 14.375H15.396C15.1772 15.9336 14.7124 17.3281 14.0288 18.2578ZM5.85303 14.375C6.61865 16.2344 8.20459 17.6836 10.1733 18.2578C9.48975 17.3281 9.05225 15.9336 8.80615 14.375H5.85303Z" fill="#657990"/>
</svg>
