<svg width="17" height="16" viewBox="0 0 17 16" fill="none" xmlns="http://www.w3.org/2000/svg">
  <path d="M14.3676 12.5693H13.9377V6.49789C13.9377 3.97825 12.0694 1.8961 9.63861 1.54968V0.855033C9.63861 0.46039 9.31797 0.140747 8.92209 0.140747C8.52621 0.140747 8.20557 0.46039 8.20557 0.855033V1.54968C5.77477 1.8961 3.90645 3.97825 3.90645 6.49789V12.5693H3.47654C3.15948 12.5693 2.90332 12.8247 2.90332 13.1407V13.7122C2.90332 13.7907 2.96781 13.855 3.04662 13.855H6.91583C6.91583 14.9586 7.81507 15.855 8.92209 15.855C10.0291 15.855 10.9283 14.9586 10.9283 13.855H14.7976C14.8764 13.855 14.9409 13.7907 14.9409 13.7122V13.1407C14.9409 12.8247 14.6847 12.5693 14.3676 12.5693ZM8.92209 14.7122C8.44739 14.7122 8.06226 14.3282 8.06226 13.855H9.78191C9.78191 14.3282 9.39678 14.7122 8.92209 14.7122ZM5.19618 12.5693V6.49789C5.19618 5.50503 5.58311 4.57289 6.28709 3.8711C6.99107 3.16932 7.92613 2.7836 8.92209 2.7836C9.91805 2.7836 10.8531 3.16932 11.5571 3.8711C12.2611 4.57289 12.648 5.50503 12.648 6.49789V12.5693H5.19618Z" fill="black" fill-opacity="0.65"/>
</svg>
