<svg width="24" height="24" viewBox="0 0 24 24" fill="none" xmlns="http://www.w3.org/2000/svg">
<path d="M17.3125 5.625C17.5312 5.625 17.75 5.84375 17.75 6.0625V6.9375C17.75 7.18359 17.5312 7.375 17.3125 7.375H5.9375C5.69141 7.375 5.5 7.18359 5.5 6.9375V6.0625C5.5 5.84375 5.69141 5.625 5.9375 5.625H9.21875L9.46484 5.13281C9.54688 4.91406 9.82031 4.75 10.0391 4.75H13.1836C13.4023 4.75 13.6484 4.91406 13.7578 5.13281L14.0312 5.625H17.3125ZM6.94922 17.5195L6.375 8.25H16.875L16.2734 17.5195C16.2461 18.2031 15.6445 18.75 14.9609 18.75H8.26172C7.57812 18.75 6.97656 18.2031 6.94922 17.5195Z" fill="#3980E8"/>
</svg>
