<svg width="24" height="24" viewBox="0 0 24 24" fill="none" xmlns="http://www.w3.org/2000/svg">
<path d="M16.375 6.0625C16.375 5.35156 15.7734 4.75 15.0625 4.75H8.9375C8.19922 4.75 7.625 5.35156 7.625 6.0625V17.4375C7.625 18.1758 8.19922 18.75 8.9375 18.75H15.0625C15.7734 18.75 16.375 18.1758 16.375 17.4375V6.0625ZM19 7.64844C19 7.56641 18.918 7.48438 18.8359 7.48438H18.3438V7.32031C18.3438 7.23828 18.2617 7.15625 18.1797 7.15625H17.0312V8.46875H18.1797C18.2617 8.46875 18.3438 8.41406 18.3438 8.30469V8.14062H18.8359C18.918 8.14062 19 8.08594 19 7.97656V7.64844ZM19 10.2734C19 10.1914 18.918 10.1094 18.8359 10.1094H18.3438V9.94531C18.3438 9.86328 18.2617 9.78125 18.1797 9.78125H17.0312V11.0938H18.1797C18.2617 11.0938 18.3438 11.0391 18.3438 10.9297V10.7656H18.8359C18.918 10.7656 19 10.7109 19 10.6016V10.2734ZM19 12.8984C19 12.8164 18.918 12.7344 18.8359 12.7344H18.3438V12.5703C18.3438 12.4883 18.2617 12.4062 18.1797 12.4062H17.0312V13.7188H18.1797C18.2617 13.7188 18.3438 13.6641 18.3438 13.5547V13.3906H18.8359C18.918 13.3906 19 13.3359 19 13.2266V12.8984ZM19 15.5234C19 15.4414 18.918 15.3594 18.8359 15.3594H18.3438V15.1953C18.3438 15.1133 18.2617 15.0312 18.1797 15.0312H17.0312V16.3438H18.1797C18.2617 16.3438 18.3438 16.2891 18.3438 16.1797V16.0156H18.8359C18.918 16.0156 19 15.9609 19 15.8516V15.5234ZM5.82031 15.0312C5.71094 15.0312 5.65625 15.1133 5.65625 15.1953V15.3594H5.16406C5.05469 15.3594 5 15.4414 5 15.5234V15.8516C5 15.9609 5.05469 16.0156 5.16406 16.0156H5.65625V16.1797C5.65625 16.2891 5.71094 16.3438 5.82031 16.3438H6.96875V15.0312H5.82031ZM5.82031 12.4062C5.71094 12.4062 5.65625 12.4883 5.65625 12.5703V12.7344H5.16406C5.05469 12.7344 5 12.8164 5 12.8984V13.2266C5 13.3359 5.05469 13.3906 5.16406 13.3906H5.65625V13.5547C5.65625 13.6641 5.71094 13.7188 5.82031 13.7188H6.96875V12.4062H5.82031ZM5.82031 9.78125C5.71094 9.78125 5.65625 9.86328 5.65625 9.94531V10.1094H5.16406C5.05469 10.1094 5 10.1914 5 10.2734V10.6016C5 10.7109 5.05469 10.7656 5.16406 10.7656H5.65625V10.9297C5.65625 11.0391 5.71094 11.0938 5.82031 11.0938H6.96875V9.78125H5.82031ZM5.82031 7.15625C5.71094 7.15625 5.65625 7.23828 5.65625 7.32031V7.48438H5.16406C5.05469 7.48438 5 7.56641 5 7.64844V7.97656C5 8.08594 5.05469 8.14062 5.16406 8.14062H5.65625V8.30469C5.65625 8.41406 5.71094 8.46875 5.82031 8.46875H6.96875V7.15625H5.82031Z" fill="#657990"/>
</svg>
