<svg width="32" height="32" viewBox="0 0 32 32" fill="none" xmlns="http://www.w3.org/2000/svg">
<path fill-rule="evenodd" clip-rule="evenodd" d="M8 7.7H14C14.1657 7.7 14.3 7.83431 14.3 8V14C14.3 14.1657 14.1657 14.3 14 14.3H8C7.83431 14.3 7.7 14.1657 7.7 14V8C7.7 7.83431 7.83431 7.7 8 7.7ZM7 8C7 7.44772 7.44772 7 8 7H14C14.5523 7 15 7.44772 15 8V14C15 14.5523 14.5523 15 14 15H8C7.44772 15 7 14.5523 7 14V8ZM8 17.7H14C14.1657 17.7 14.3 17.8343 14.3 18V24C14.3 24.1657 14.1657 24.3 14 24.3H8C7.83431 24.3 7.7 24.1657 7.7 24V18C7.7 17.8343 7.83431 17.7 8 17.7ZM7 18C7 17.4477 7.44772 17 8 17H14C14.5523 17 15 17.4477 15 18V24C15 24.5523 14.5523 25 14 25H8C7.44772 25 7 24.5523 7 24V18ZM24 7.7H18C17.8343 7.7 17.7 7.83431 17.7 8V14C17.7 14.1657 17.8343 14.3 18 14.3H24C24.1657 14.3 24.3 14.1657 24.3 14V8C24.3 7.83431 24.1657 7.7 24 7.7ZM18 7C17.4477 7 17 7.44772 17 8V14C17 14.5523 17.4477 15 18 15H24C24.5523 15 25 14.5523 25 14V8C25 7.44772 24.5523 7 24 7H18ZM20.7 17.3C20.7 17.1343 20.8343 17 21 17C21.1657 17 21.3 17.1343 21.3 17.3V20.7H24.7C24.8657 20.7 25 20.8343 25 21C25 21.1657 24.8657 21.3 24.7 21.3H21.3V24.7C21.3 24.8657 21.1657 25 21 25C20.8343 25 20.7 24.8657 20.7 24.7V21.3H17.3C17.1343 21.3 17 21.1657 17 21C17 20.8343 17.1343 20.7 17.3 20.7H20.7V17.3Z" fill="#303030"/>
<path fill-rule="evenodd" clip-rule="evenodd" d="M20.7 20.7V17.3C20.7 17.1343 20.8343 17 21 17C21.1657 17 21.3 17.1343 21.3 17.3V20.7H24.7C24.8657 20.7 25 20.8343 25 21C25 21.1657 24.8657 21.3 24.7 21.3H21.3V24.7C21.3 24.8657 21.1657 25 21 25C20.8343 25 20.7 24.8657 20.7 24.7V21.3H17.3C17.1343 21.3 17 21.1657 17 21C17 20.8343 17.1343 20.7 17.3 20.7H20.7ZM14 7.7H8C7.83431 7.7 7.7 7.83431 7.7 8V14C7.7 14.1657 7.83431 14.3 8 14.3H14C14.1657 14.3 14.3 14.1657 14.3 14V8C14.3 7.83431 14.1657 7.7 14 7.7ZM8 7C7.44772 7 7 7.44772 7 8V14C7 14.5523 7.44772 15 8 15H14C14.5523 15 15 14.5523 15 14V8C15 7.44772 14.5523 7 14 7H8ZM14 17.7H8C7.83431 17.7 7.7 17.8343 7.7 18V24C7.7 24.1657 7.83431 24.3 8 24.3H14C14.1657 24.3 14.3 24.1657 14.3 24V18C14.3 17.8343 14.1657 17.7 14 17.7ZM8 17C7.44772 17 7 17.4477 7 18V24C7 24.5523 7.44772 25 8 25H14C14.5523 25 15 24.5523 15 24V18C15 17.4477 14.5523 17 14 17H8ZM18 7.7H24C24.1657 7.7 24.3 7.83431 24.3 8V14C24.3 14.1657 24.1657 14.3 24 14.3H18C17.8343 14.3 17.7 14.1657 17.7 14V8C17.7 7.83431 17.8343 7.7 18 7.7ZM17 8C17 7.44772 17.4477 7 18 7H24C24.5523 7 25 7.44772 25 8V14C25 14.5523 24.5523 15 24 15H18C17.4477 15 17 14.5523 17 14V8Z" fill="#657181"/>
</svg>
