<svg width="32" height="32" viewBox="0 0 32 32" fill="none" xmlns="http://www.w3.org/2000/svg">
<path d="M5.70324 10.2802L5.70915 10.2856L12.5246 16.5619L5.70324 10.2802ZM5.70324 10.2802C5.70571 10.278 5.70847 10.2766 5.71133 10.2756C5.71408 10.2746 5.71658 10.2741 5.71822 10.2738L5.71935 10.2737H22.7032C22.7136 10.2737 22.7165 10.2739 22.7209 10.2756C22.7238 10.2766 22.7282 10.2787 22.7348 10.2832C22.7347 10.2834 22.7346 10.2835 22.7346 10.2837C22.7337 10.2852 22.7329 10.2863 22.7325 10.2868L15.9829 16.5619C15.9829 16.5619 15.9829 16.5619 15.9828 16.562C15.8428 16.6906 15.7732 16.8622 15.7732 17.0526V26.3464C15.7718 26.3478 15.7701 26.3494 15.7679 26.3513L15.7639 26.355C15.7609 26.3526 15.757 26.3499 15.7526 26.3475C15.7468 26.3443 15.7406 26.3418 15.7339 26.3402L12.7558 24.3734V17.0526C12.7558 16.8581 12.6615 16.6876 12.5246 16.5619L5.70324 10.2802ZM15.3229 26.9234L15.3229 26.9235L15.3241 26.9242C15.4603 27.0076 15.5983 27.05 15.7587 27.05C15.9418 27.05 16.1263 26.987 16.2656 26.8592C16.4038 26.7323 16.4967 26.5417 16.4967 26.3487V17.0549C16.4982 17.0536 16.4999 17.052 16.5021 17.05L16.5023 17.0497L23.2318 10.7734L23.2318 10.7735L23.2334 10.7719C23.4391 10.5621 23.5111 10.2642 23.3937 10.0057C23.2774 9.74932 23.0005 9.58159 22.7032 9.58159H5.69678C5.39954 9.58159 5.12261 9.74932 5.00626 10.0057L5.00624 10.0057L5.00567 10.007C4.89006 10.2829 4.95938 10.5817 5.16847 10.7737L12.0054 17.05L12.0108 17.0549V24.3947C12.0108 24.629 12.127 24.8423 12.335 24.9699C12.3352 24.97 12.3354 24.9702 12.3357 24.9703L15.3229 26.9234Z" fill="#657181" stroke="#657181" stroke-width="0.1"/>
</svg>
