<svg width="32" height="32" viewBox="0 0 32 32" fill="none" xmlns="http://www.w3.org/2000/svg">
<rect x="9.25" y="11.25" width="3.5" height="2" rx="0.75" stroke="#657181" stroke-width="0.5"/>
<rect x="9.39258" y="15.25" width="8.5" height="2" rx="0.75" stroke="#657181" stroke-width="0.5"/>
<rect x="9.25" y="19.25" width="3.5" height="2" rx="0.75" stroke="#657181" stroke-width="0.5"/>
<rect x="14.9639" y="11.25" width="8.07143" height="2" rx="0.75" stroke="#657181" stroke-width="0.5"/>
<rect x="19.3926" y="15.25" width="3.5" height="2" rx="0.75" stroke="#657181" stroke-width="0.5"/>
<rect x="14.9639" y="19.25" width="8.07143" height="2" rx="0.75" stroke="#657181" stroke-width="0.5"/>
<path d="M21.3896 6H10.6104C8.06824 6 6 8.06824 6 10.6106V21.3897C6 23.9318 8.06824 26 10.6104 26H21.3896C23.9318 26 26 23.9318 26 21.3897V10.6106C26 8.06824 23.9318 6 21.3896 6ZM25.3939 21.3897C25.3939 23.5977 23.5977 25.3939 21.3896 25.3939H10.6104C8.40234 25.3939 6.60606 23.5977 6.60606 21.3897V10.6106C6.60606 8.40234 8.40234 6.60606 10.6104 6.60606H21.3896C23.5977 6.60606 25.3939 8.40234 25.3939 10.6106V21.3897Z" fill="#657181"/>
</svg>
