<svg width="32" height="32" viewBox="0 0 32 32" fill="none" xmlns="http://www.w3.org/2000/svg">
<path d="M27.5234 15.3064C26.5818 13.3227 25.4612 11.7048 24.1618 10.4528L22.7989 11.8157C23.9102 12.8778 24.8783 14.2671 25.7153 15.9975C23.4868 20.61 20.3234 22.8011 16.0002 22.8011C14.7025 22.8011 13.5072 22.6012 12.4144 22.2016L10.9377 23.6783C12.4555 24.3792 14.143 24.7296 16.0002 24.7296C21.1484 24.7296 24.9894 22.0484 27.5234 16.6859C27.6252 16.4702 27.6781 16.2347 27.6781 15.9961C27.6781 15.7576 27.6252 15.5221 27.5234 15.3064V15.3064ZM25.8206 6.71784L24.6787 5.57463C24.6588 5.5547 24.6352 5.5389 24.6092 5.52811C24.5832 5.51733 24.5553 5.51178 24.5271 5.51178C24.499 5.51178 24.4711 5.51733 24.4451 5.52811C24.419 5.5389 24.3954 5.5547 24.3755 5.57463L21.446 8.50284C19.8308 7.67784 18.0155 7.26534 16.0002 7.26534C10.8519 7.26534 7.01087 9.94659 4.47694 15.3091C4.37509 15.5248 4.32227 15.7603 4.32227 15.9988C4.32227 16.2373 4.37509 16.4729 4.47694 16.6886C5.48926 18.8207 6.70801 20.5297 8.13319 21.8156L5.29873 24.6493C5.25857 24.6895 5.23601 24.7439 5.23601 24.8007C5.23601 24.8576 5.25857 24.912 5.29873 24.9522L6.44221 26.0957C6.48239 26.1359 6.53687 26.1584 6.59368 26.1584C6.65049 26.1584 6.70497 26.1359 6.74515 26.0957L25.8206 7.02106C25.8405 7.00115 25.8563 6.97752 25.8671 6.95151C25.8779 6.92549 25.8834 6.89761 25.8834 6.86945C25.8834 6.84129 25.8779 6.8134 25.8671 6.78739C25.8563 6.76138 25.8405 6.73774 25.8206 6.71784ZM6.28498 15.9975C8.51623 11.385 11.6796 9.19391 16.0002 9.19391C17.461 9.19391 18.7894 9.44463 19.9944 9.95436L18.1114 11.8374C17.2196 11.3616 16.1985 11.185 15.1987 11.3337C14.199 11.4824 13.2734 11.9484 12.5587 12.6632C11.844 13.3779 11.3779 14.3034 11.2292 15.3032C11.0805 16.303 11.2571 17.3241 11.7329 18.2159L9.49846 20.4503C8.26176 19.3588 7.19569 17.88 6.28498 15.9975ZM12.893 15.9975C12.8935 15.5252 13.0054 15.0596 13.2196 14.6386C13.4338 14.2177 13.7442 13.8532 14.1258 13.5747C14.5073 13.2963 14.9491 13.1118 15.4154 13.0362C15.8816 12.9606 16.3591 12.9961 16.8091 13.1397L13.0352 16.9136C12.9407 16.6174 12.8927 16.3084 12.893 15.9975V15.9975Z" fill="#657181"/>
<path d="M15.8925 19.0018C15.7998 19.0018 15.7085 18.9975 15.6179 18.9892L14.2031 20.404C15.0541 20.7299 15.9812 20.8024 16.8725 20.6126C17.7637 20.4228 18.5809 19.9789 19.2252 19.3345C19.8695 18.6902 20.3134 17.873 20.5032 16.9818C20.693 16.0905 20.6206 15.1634 20.2947 14.3124L18.8799 15.7273C18.8882 15.8178 18.8925 15.9091 18.8925 16.0018C18.8927 16.3958 18.8153 16.786 18.6646 17.1501C18.5139 17.5142 18.2929 17.845 18.0143 18.1236C17.7357 18.4022 17.4049 18.6232 17.0408 18.7739C16.6767 18.9246 16.2865 19.002 15.8925 19.0018V19.0018Z" fill="#657181"/>
</svg>
