<svg width="32" height="32" viewBox="0 0 32 32" fill="none" xmlns="http://www.w3.org/2000/svg">
<path fill-rule="evenodd" clip-rule="evenodd" d="M7.64043 14.6535L15.3309 21.8103C15.4818 21.9356 15.7413 21.9804 15.953 21.8103L23.6435 14.6535C23.8316 14.4663 23.8276 14.1894 23.6648 14.0174C23.5019 13.8453 23.1953 13.8353 23.0214 13.9964L16.0943 20.4402V6.94729C16.0943 6.70025 15.8918 6.5 15.642 6.5C15.3921 6.5 15.1896 6.70025 15.1896 6.94729V20.4402L8.2625 13.9964C8.08856 13.8355 7.78469 13.8479 7.61917 14.0174C7.45626 14.1842 7.45757 14.4803 7.64043 14.6535ZM6.5 25.0527C6.5 24.8057 6.70253 24.6054 6.95238 24.6054H25.0476C25.2975 24.6054 25.5 24.8057 25.5 25.0527C25.5 25.2997 25.2975 25.5 25.0476 25.5H6.95238C6.70253 25.5 6.5 25.2997 6.5 25.0527Z" fill="#657181"/>
</svg>
