<svg width="32" height="32" viewBox="0 0 32 32" fill="none" xmlns="http://www.w3.org/2000/svg"><path fill="#303030" opacity="0.55" fill-rule="evenodd" d="M6 10.6106C6 8.06824 8.06824 6 10.6104 6H21.3896C23.9318 6 26 8.06824 26 10.6106V21.3897C26 23.9318 23.9318 26 21.3896 26H10.6104C8.06824 26 6 23.9318 6 21.3897V10.6106ZM7 10.6106C7 8.62051 8.62055 7 10.6104 7H21.3896C23.3795 7 25 8.62051 25 10.6106V21.3897C25 23.3795 23.3795 25 21.3896 25H10.6104C8.62051 25 7 23.3795 7 21.3897V10.6106Z"/>
    <path fill="#657181" fill-rule="evenodd" d="M6 10.6106C6 8.06824 8.06824 6 10.6104 6H21.3896C23.9318 6 26 8.06824 26 10.6106V21.3897C26 23.9318 23.9318 26 21.3896 26H10.6104C8.06824 26 6 23.9318 6 21.3897V10.6106ZM7 10.6106C7 8.62051 8.62055 7 10.6104 7H21.3896C23.3795 7 25 8.62051 25 10.6106V21.3897C25 23.3795 23.3795 25 21.3896 25H10.6104C8.62051 25 7 23.3795 7 21.3897V10.6106Z"/>
    <rect x="10.25" y="11.25" width="11.5" height="9.5" stroke="#657181" stroke-width="0.5"/>
    <rect x="9.64971" y="10.65" width="0.9" height="0.9" fill="#303030" stroke="#657181" stroke-width="0.9"/>
    <rect x="21.4495" y="10.65" width="0.9" height="0.9" fill="#303030" stroke="#657181" stroke-width="0.9"/>
    <rect x="9.64971" y="20.45" width="0.9" height="0.9" fill="#303030" stroke="#657181" stroke-width="0.9"/>
    <rect x="21.4495" y="20.45" width="0.9" height="0.9" fill="#303030" stroke="#657181" stroke-width="0.9"/>
</svg>
