<svg width="32" height="32" viewBox="0 0 32 32" fill="none" xmlns="http://www.w3.org/2000/svg">
<path d="M25.6875 16.5C25.6875 21.8516 21.3125 26.1875 16 26.1875C10.6484 26.1875 6.3125 21.8516 6.3125 16.5C6.3125 11.1875 10.6484 6.8125 16 6.8125C21.3125 6.8125 25.6875 11.1875 25.6875 16.5ZM16.2344 10.0156C14.125 10.0156 12.7578 10.9141 11.7031 12.5156C11.5469 12.75 11.5859 13.0234 11.7812 13.1797L13.1484 14.1953C13.3438 14.3516 13.6562 14.3125 13.8125 14.1172C14.5156 13.2188 14.9844 12.7109 16.0391 12.7109C16.8203 12.7109 17.8359 13.2188 17.8359 14C17.8359 14.5859 17.3281 14.8984 16.5469 15.3281C15.6484 15.8359 14.4375 16.4609 14.4375 18.0625V18.2188C14.4375 18.4922 14.6328 18.6875 14.9062 18.6875H17.0938C17.3281 18.6875 17.5625 18.4922 17.5625 18.2188V18.1797C17.5625 17.0859 20.8047 17.0469 20.8047 14C20.8047 11.7344 18.4609 10.0156 16.2344 10.0156ZM16 19.7031C14.9844 19.7031 14.2031 20.5234 14.2031 21.5C14.2031 22.5156 14.9844 23.2969 16 23.2969C16.9766 23.2969 17.7969 22.5156 17.7969 21.5C17.7969 20.5234 16.9766 19.7031 16 19.7031Z" fill="#3980E8"/>
</svg>
