<svg width="13" height="13" viewBox="0 0 13 13" fill="none" xmlns="http://www.w3.org/2000/svg">
<path d="M11.375 5.4375H7.4375V1.5C7.4375 1.03516 7.02734 0.625 6.5625 0.625H5.6875C5.19531 0.625 4.8125 1.03516 4.8125 1.5V5.4375H0.875C0.382812 5.4375 0 5.84766 0 6.3125V7.1875C0 7.67969 0.382812 8.0625 0.875 8.0625H4.8125V12C4.8125 12.4922 5.19531 12.875 5.6875 12.875H6.5625C7.02734 12.875 7.4375 12.4922 7.4375 12V8.0625H11.375C11.8398 8.0625 12.25 7.67969 12.25 7.1875V6.3125C12.25 5.84766 11.8398 5.4375 11.375 5.4375Z" fill="white"/>
</svg>
