<svg width="32" height="32" viewBox="0 0 32 32" fill="none" xmlns="http://www.w3.org/2000/svg">
<path d="M5 8.01224V11.3523H26.5971V10.7975C26.5971 9.76027 25.7563 8.91945 24.7191 8.91945H13.9206L12.0425 6.48658L7.00746 6.1387C5.92189 6.06369 5 6.92408 5 8.01224Z" fill="url(#paint0_linear)"/>
<path d="M15.5195 17.1396C16.2715 17.1396 16.8623 17.3268 17.292 17.7012C17.7249 18.0723 17.9414 18.5817 17.9414 19.2295C17.9414 19.9684 17.7054 20.5479 17.2334 20.9678C16.7646 21.3877 16.1169 21.5977 15.29 21.5977C14.486 21.5977 13.8724 21.4691 13.4492 21.2119V20.4307C13.6771 20.5771 13.9603 20.6927 14.2988 20.7773C14.6374 20.8587 14.971 20.8994 15.2998 20.8994C15.8727 20.8994 16.3171 20.7643 16.6328 20.4941C16.9518 20.224 17.1113 19.8333 17.1113 19.3223C17.1113 18.3262 16.501 17.8281 15.2803 17.8281C14.971 17.8281 14.5576 17.8753 14.04 17.9697L13.6201 17.7012L13.8887 14.3613H17.4385V15.1084H14.582L14.4014 17.252C14.7757 17.1771 15.1484 17.1396 15.5195 17.1396Z" fill="url(#paint1_linear)"/>
<path d="M25.2588 24.5231C25.109 24.5231 24.9591 24.5231 24.8093 24.5231C24.4002 24.5231 23.9887 24.5231 23.5796 24.5231C22.9707 24.5231 22.3641 24.5231 21.7552 24.5231C21.0012 24.5231 20.2472 24.5231 19.4932 24.5231C18.6536 24.5231 17.8163 24.5231 16.9767 24.5231C16.1109 24.5231 15.2451 24.5231 14.3793 24.5231C13.5468 24.5231 12.712 24.5231 11.8795 24.5231C11.1397 24.5231 10.4 24.5231 9.66027 24.5231C9.06563 24.5231 8.47099 24.5231 7.87635 24.5231C7.48865 24.5231 7.10094 24.5231 6.71324 24.5231C6.49203 24.5231 6.25418 24.5445 6.04486 24.4708C5.69759 24.3471 5.4859 24.0093 5.48114 23.6502C5.48114 23.5812 5.48114 23.5122 5.48114 23.4432C5.48114 23.0769 5.48114 22.7083 5.48114 22.342C5.48114 21.7354 5.48114 21.1265 5.48114 20.52C5.48114 19.7517 5.48114 18.9811 5.48114 18.2128C5.48114 17.3636 5.48114 16.5169 5.48114 15.6677C5.48114 14.8115 5.48114 13.9528 5.48114 13.0965C5.48114 12.314 5.48114 11.5291 5.48114 10.7465C5.48114 10.1138 5.48114 9.4835 5.48114 8.8508C5.48114 8.44883 5.48114 8.04923 5.48114 7.64725C5.48114 7.55687 5.48114 7.46886 5.48114 7.37848C5.48114 7.12873 5.56202 6.89563 5.74516 6.71962C5.95448 6.51744 6.21136 6.477 6.4849 6.477C6.74892 6.477 7.01531 6.477 7.27933 6.477C8.10469 6.477 8.93005 6.477 9.75541 6.477C10.0836 6.477 10.4143 6.477 10.7425 6.477C10.8995 6.477 11.0684 6.46035 11.2254 6.48414C11.5869 6.53409 11.7772 6.80762 11.9817 7.07164C12.2291 7.38561 12.4741 7.70196 12.7215 8.01593C12.8761 8.21335 13.0283 8.41315 13.1853 8.60819C13.4422 8.92691 13.8299 9.08628 14.2318 9.08866C14.572 9.08866 14.9121 9.08866 15.2522 9.08866C15.9278 9.08866 16.6056 9.08866 17.2812 9.08866C18.1184 9.08866 18.958 9.08866 19.7953 9.08866C20.6325 9.08866 21.4698 9.08866 22.307 9.08866C22.9683 9.08866 23.6295 9.08866 24.2908 9.08866C24.6047 9.08866 24.9211 9.08628 25.235 9.08866C25.5823 9.09104 25.9058 9.28132 26.0485 9.60718C26.1104 9.74989 26.1175 9.89737 26.1175 10.0496C26.1175 10.3897 26.1175 10.7322 26.1175 11.0724C26.1175 11.7003 26.1175 12.3259 26.1175 12.9538C26.1175 13.7554 26.1175 14.5546 26.1175 15.3561C26.1175 16.2196 26.1175 17.083 26.1175 17.9464C26.1175 18.7575 26.1175 19.5686 26.1175 20.3797C26.1175 21.0338 26.1175 21.6902 26.1175 22.3443C26.1175 22.7297 26.1175 23.1126 26.1175 23.4979C26.1175 23.5526 26.1175 23.6097 26.1175 23.6644C26.1151 24.1354 25.7345 24.516 25.2588 24.5231C24.952 24.5279 24.952 25.0036 25.2588 24.9988C25.9129 24.9893 26.4885 24.5112 26.5813 23.8547C26.5956 23.7453 26.598 23.6407 26.598 23.5312C26.598 23.1626 26.598 22.7939 26.598 22.4276C26.598 21.7735 26.598 21.1218 26.598 20.4677C26.598 19.6494 26.598 18.8312 26.598 18.013C26.598 17.1424 26.598 16.2719 26.598 15.399C26.598 14.5903 26.598 13.7792 26.598 12.9705C26.598 12.3378 26.598 11.7027 26.598 11.07C26.598 10.7275 26.598 10.3826 26.598 10.0401C26.598 9.84979 26.5813 9.65951 26.5123 9.47874C26.3078 8.95784 25.8178 8.6177 25.2565 8.61057C24.9758 8.60819 24.6927 8.61057 24.4121 8.61057C23.7651 8.61057 23.1158 8.61057 22.4688 8.61057C21.6268 8.61057 20.7848 8.61057 19.9428 8.61057C19.0889 8.61057 18.2373 8.61057 17.3834 8.61057C16.6913 8.61057 15.9991 8.61057 15.307 8.61057C14.9526 8.61057 14.5981 8.61057 14.2414 8.61057C13.9488 8.61057 13.7038 8.4964 13.5183 8.26568C13.3423 8.04447 13.171 7.82089 12.995 7.5973C12.7524 7.28809 12.5122 6.97888 12.2695 6.66967C12.2196 6.60782 12.172 6.5436 12.1221 6.48176C11.9032 6.2106 11.5845 6.04886 11.2396 6.01081C11.0731 5.99178 10.9019 6.00367 10.7354 6.00367C10.4024 6.00367 10.067 6.00367 9.734 6.00367C8.90389 6.00367 8.07377 6.00367 7.24128 6.00367C6.98201 6.00367 6.72037 6.00367 6.46111 6.00367C6.09719 6.00367 5.76419 6.08692 5.47877 6.3224C5.17193 6.5769 5.01019 6.96699 5.00781 7.36183C5.00781 7.44032 5.00781 7.52119 5.00781 7.59968C5.00781 7.98739 5.00781 8.37747 5.00781 8.76517C5.00781 9.39311 5.00781 10.021 5.00781 10.6466C5.00781 11.4315 5.00781 12.2188 5.00781 13.0038C5.00781 13.8672 5.00781 14.7306 5.00781 15.594C5.00781 16.455 5.00781 17.3161 5.00781 18.1747C5.00781 18.9525 5.00781 19.7279 5.00781 20.5057C5.00781 21.1194 5.00781 21.7307 5.00781 22.3443C5.00781 22.713 5.00781 23.0817 5.00781 23.448C5.00781 23.5146 5.00781 23.5836 5.00781 23.6502C5.01257 24.1378 5.27183 24.6016 5.70711 24.8347C6.01632 25.0012 6.33029 24.9964 6.66329 24.9964C7.0391 24.9964 7.41491 24.9964 7.79072 24.9964C8.3806 24.9964 8.97049 24.9964 9.56037 24.9964C10.3049 24.9964 11.0493 24.9964 11.7938 24.9964C12.6335 24.9964 13.4707 24.9964 14.3103 24.9964C15.1833 24.9964 16.0562 24.9964 16.9291 24.9964C17.7759 24.9964 18.625 24.9964 19.4718 24.9964C20.2329 24.9964 20.9941 24.9964 21.7552 24.9964C22.3736 24.9964 22.9897 24.9964 23.6081 24.9964C24.0172 24.9964 24.424 24.9964 24.8331 24.9964C24.9758 24.9964 25.1161 24.9964 25.2588 24.9964C25.5633 24.9988 25.5657 24.5231 25.2588 24.5231Z" fill="#657181"/>
<path d="M25.2572 24.521C24.8029 24.521 24.3486 24.521 23.8943 24.521C22.7621 24.521 21.6275 24.521 20.4953 24.521C19.0064 24.521 17.5174 24.521 16.0284 24.521C14.5299 24.521 13.0314 24.521 11.5329 24.521C10.3437 24.521 9.15438 24.521 7.96749 24.521C7.43231 24.521 6.89714 24.5233 6.36196 24.521C6.09081 24.5186 5.83392 24.4068 5.66504 24.188C5.53185 24.0167 5.48427 23.8145 5.48427 23.6028C5.48427 23.3031 5.48427 23.0058 5.48427 22.7061C5.48427 21.4098 5.48427 20.1111 5.48427 18.8148C5.48427 17.352 5.48427 15.8892 5.48427 14.424C5.48427 13.9316 5.48427 13.4369 5.48427 12.9445C5.48427 12.7376 5.47476 12.5259 5.48665 12.3166C5.51282 11.8671 5.90766 11.5269 6.34769 11.5198C6.38099 11.5198 6.41429 11.5198 6.44759 11.5198C6.68544 11.5198 6.92092 11.5198 7.15878 11.5198C8.15777 11.5198 9.15914 11.5198 10.1581 11.5198C11.5853 11.5198 13.0124 11.5198 14.4419 11.5198C15.9737 11.5198 17.5079 11.5198 19.0397 11.5198C20.3288 11.5198 21.6204 11.5198 22.9096 11.5198C23.6374 11.5198 24.3629 11.5198 25.0907 11.5198C25.143 11.5198 25.1977 11.5198 25.2501 11.5198C25.5403 11.5222 25.8185 11.6554 25.9803 11.9027C26.1539 12.1691 26.1254 12.4664 26.1254 12.7685C26.1254 13.8912 26.1254 15.0139 26.1254 16.1366C26.1254 17.6398 26.1254 19.1431 26.1254 20.6463C26.1254 21.6049 26.1254 22.5658 26.1254 23.5243C26.1254 23.5886 26.1278 23.6552 26.123 23.7194C26.0897 24.1737 25.6972 24.5138 25.2572 24.521C24.9504 24.5257 24.9504 25.0014 25.2572 24.9967C25.8447 24.9872 26.3704 24.6066 26.5392 24.0405C26.5868 23.8859 26.594 23.7265 26.594 23.5672C26.594 23.2342 26.594 22.8988 26.594 22.5658C26.594 21.2148 26.594 19.8614 26.594 18.5104C26.594 17.0571 26.594 15.6061 26.594 14.1528C26.594 13.6938 26.594 13.2323 26.594 12.7733C26.594 12.407 26.6082 12.055 26.4156 11.7196C26.1777 11.3033 25.7282 11.0536 25.2524 11.0488C25.2096 11.0488 25.1668 11.0488 25.1264 11.0488C24.8719 11.0488 24.6197 11.0488 24.3652 11.0488C23.3258 11.0488 22.2864 11.0488 21.2493 11.0488C19.7841 11.0488 18.3213 11.0488 16.8561 11.0488C15.3148 11.0488 13.7712 11.0488 12.2299 11.0488C10.955 11.0488 9.68242 11.0488 8.40752 11.0488C7.74866 11.0488 7.08742 11.0488 6.42856 11.0488C6.37861 11.0488 6.32628 11.0488 6.27633 11.0512C5.70548 11.0845 5.20123 11.4793 5.05138 12.0359C4.98002 12.3023 5.00381 12.5996 5.00381 12.8732C5.00381 14.0529 5.00381 15.2351 5.00381 16.4148C5.00381 17.9324 5.00381 19.4499 5.00381 20.9674C5.00381 21.8475 5.00381 22.7275 5.00381 23.61C5.00381 23.8716 5.05851 24.1285 5.19647 24.3545C5.44146 24.7564 5.87674 24.9943 6.34531 24.9991C6.49278 25.0014 6.64025 24.9991 6.78534 24.9991C7.66779 24.9991 8.55261 24.9991 9.43505 24.9991C10.8289 24.9991 12.2227 24.9991 13.6142 24.9991C15.1698 24.9991 16.7229 24.9991 18.2785 24.9991C19.6486 24.9991 21.0186 24.9991 22.391 24.9991C23.2307 24.9991 24.0727 24.9991 24.9123 24.9991C25.0265 24.9991 25.1383 24.9991 25.2524 24.9991C25.5617 24.9967 25.564 24.521 25.2572 24.521Z" fill="#657181"/>
<defs>
<linearGradient id="paint0_linear" x1="3.44625" y1="8.91946" x2="26.5971" y2="8.91946" gradientUnits="userSpaceOnUse">
<stop stop-color="#5C8EF7"/>
<stop offset="1" stop-color="#70BEF5"/>
</linearGradient>
<linearGradient id="paint1_linear" x1="18.5029" y1="20.0599" x2="13.0187" y2="19.8685" gradientUnits="userSpaceOnUse">
<stop offset="0.00949925" stop-color="#5DB9FF"/>
<stop offset="0.994653" stop-color="#3980E8"/>
</linearGradient>
</defs>
</svg>
