<svg width="32" height="34" viewBox="0 0 32 34" fill="none" xmlns="http://www.w3.org/2000/svg">
<path d="M15.6439 12.8643L5.48145 8.99976V8.48999L5.98145 7.98999H25.9814L26.4814 8.48999V8.99976L16.3559 12.8639C16.1267 12.9514 15.8733 12.9516 15.6439 12.8643Z" fill="url(#paint0_linear)"/>
<path fill-rule="evenodd" clip-rule="evenodd" d="M15.5415 12.9354L5.39746 9.07106L5.60394 8.52905L15.7479 12.3934C15.9107 12.4555 16.0907 12.4555 16.2535 12.3934L26.3975 8.52905L26.6039 9.07106L16.4599 12.9354C16.1641 13.0481 15.8373 13.0481 15.5415 12.9354Z" fill="#657181"/>
<path d="M25.4574 23.7334C25.0031 23.7334 24.5488 23.7334 24.0945 23.7334C22.9623 23.7334 21.8277 23.7334 20.6955 23.7334C19.2066 23.7334 17.7176 23.7334 16.2286 23.7334C14.7301 23.7334 13.2316 23.7334 11.7331 23.7334C10.5439 23.7334 9.35458 23.7334 8.16768 23.7334C7.63251 23.7334 7.09733 23.7362 6.56216 23.7334C6.291 23.7306 6.03412 23.5984 5.86524 23.3396C5.73204 23.137 5.68447 22.8979 5.68447 22.6476C5.68447 22.2931 5.68447 21.9415 5.68447 21.587C5.68447 20.0539 5.68447 18.5179 5.68447 16.9848C5.68447 15.2547 5.68447 13.5247 5.68447 11.7918C5.68447 11.2095 5.68447 10.6244 5.68447 10.0421C5.68447 9.79735 5.67496 9.54698 5.68685 9.29943C5.71301 8.76775 6.10785 8.36548 6.54788 8.35704C6.58118 8.35704 6.61448 8.35704 6.64778 8.35704C6.88564 8.35704 7.12112 8.35704 7.35897 8.35704C8.35797 8.35704 9.35934 8.35704 10.3583 8.35704C11.7855 8.35704 13.2126 8.35704 14.6421 8.35704C16.1739 8.35704 17.7081 8.35704 19.2399 8.35704C20.529 8.35704 21.8206 8.35704 23.1098 8.35704C23.8376 8.35704 24.5631 8.35704 25.2909 8.35704C25.3432 8.35704 25.3979 8.35704 25.4503 8.35704C25.7404 8.35985 26.0187 8.51739 26.1805 8.80995C26.3541 9.12502 26.3256 9.47665 26.3256 9.83392C26.3256 11.1617 26.3256 12.4895 26.3256 13.8173C26.3256 15.5951 26.3256 17.373 26.3256 19.1509C26.3256 20.2846 26.3256 21.4211 26.3256 22.5547C26.3256 22.6307 26.3279 22.7094 26.3232 22.7854C26.2899 23.3227 25.8974 23.725 25.4574 23.7334C25.1506 23.739 25.1506 24.3017 25.4574 24.296C26.0449 24.2848 26.5706 23.8347 26.7394 23.1652C26.787 22.9823 26.7941 22.7938 26.7941 22.6054C26.7941 22.2115 26.7941 21.8149 26.7941 21.4211C26.7941 19.8232 26.7941 18.2226 26.7941 16.6247C26.7941 14.9059 26.7941 13.1899 26.7941 11.4711C26.7941 10.9282 26.7941 10.3825 26.7941 9.83954C26.7941 9.40633 26.8084 8.98999 26.6158 8.59334C26.3779 8.10105 25.9284 7.80568 25.4526 7.80005C25.4098 7.80005 25.367 7.80005 25.3266 7.80005C25.0721 7.80005 24.8199 7.80005 24.5654 7.80005C23.526 7.80005 22.4866 7.80005 21.4495 7.80005C19.9843 7.80005 18.5215 7.80005 17.0563 7.80005C15.515 7.80005 13.9714 7.80005 12.4301 7.80005C11.1551 7.80005 9.88262 7.80005 8.60771 7.80005C7.94885 7.80005 7.28762 7.80005 6.62876 7.80005C6.57881 7.80005 6.52648 7.80005 6.47653 7.80286C5.90567 7.84225 5.40142 8.30922 5.25157 8.96748C5.18022 9.28255 5.204 9.63419 5.204 9.95769C5.204 11.353 5.204 12.7511 5.204 14.1464C5.204 15.9411 5.204 17.7359 5.204 19.5307C5.204 20.5715 5.204 21.6123 5.204 22.656C5.204 22.9654 5.25871 23.2693 5.39666 23.5365C5.64166 24.0119 6.07693 24.2932 6.54551 24.2988C6.69298 24.3017 6.84045 24.2988 6.98554 24.2988C7.86798 24.2988 8.75281 24.2988 9.63525 24.2988C11.0291 24.2988 12.4229 24.2988 13.8144 24.2988C15.3699 24.2988 16.9231 24.2988 18.4787 24.2988C19.8488 24.2988 21.2188 24.2988 22.5912 24.2988C23.4309 24.2988 24.2729 24.2988 25.1125 24.2988C25.2267 24.2988 25.3385 24.2988 25.4526 24.2988C25.7619 24.296 25.7642 23.7334 25.4574 23.7334Z" fill="#657181"/>
<path d="M15.7197 17.6396C16.4717 17.6396 17.0625 17.8268 17.4922 18.2012C17.9251 18.5723 18.1416 19.0817 18.1416 19.7295C18.1416 20.4684 17.9056 21.0479 17.4336 21.4678C16.9648 21.8877 16.3171 22.0977 15.4902 22.0977C14.6862 22.0977 14.0726 21.9691 13.6494 21.7119V20.9307C13.8773 21.0771 14.1605 21.1927 14.499 21.2773C14.8376 21.3587 15.1712 21.3994 15.5 21.3994C16.0729 21.3994 16.5173 21.2643 16.833 20.9941C17.152 20.724 17.3115 20.3333 17.3115 19.8223C17.3115 18.8262 16.7012 18.3281 15.4805 18.3281C15.1712 18.3281 14.7578 18.3753 14.2402 18.4697L13.8203 18.2012L14.0889 14.8613H17.6387V15.6084H14.7822L14.6016 17.752C14.9759 17.6771 15.3486 17.6396 15.7197 17.6396Z" fill="url(#paint1_linear)"/>
<linearGradient id="paint0_linear" x1="29.1064" y1="11.88" x2="4.82519" y2="6.07592" gradientUnits="userSpaceOnUse">
<stop offset="0.00949925" stop-color="#5DB9FF"/>
<stop offset="0.994653" stop-color="#3980E8"/>
</linearGradient>
</svg>
