<svg width="24" height="16" viewBox="0 0 24 16" fill="none" xmlns="http://www.w3.org/2000/svg">
<g id="laptop 20 1" clip-path="url(#clip0_44187_80466)">
<g id="Layer_1">
<path id="Vector" d="M20.8201 2.00879H11.9998V13.1198H20.8201V2.00879Z" fill="#96BCF3"/>
<path id="Vector_2" d="M11.9997 2.00879H3.17993V13.1198H11.9997V2.00879Z" fill="#C4D9F8"/>
<path id="Vector_3" d="M11.9998 13.1199H3.17999V2.00886H11.9998V0.743164H3.46761C2.93817 0.743164 2.50903 1.17227 2.50903 1.70174V14.2136H11.9998V13.1199Z" fill="#506072"/>
<path id="Vector_4" d="M20.8201 2.00886V13.1199H11.9998V14.2136H21.491V1.70174C21.491 1.17227 21.0619 0.743164 20.5326 0.743164H11.9998V2.00886H20.8201Z" fill="#3B4754"/>
<path id="Vector_5" d="M2.36662 13.9287H1.26233V14.2136H2.36662V13.9287Z" fill="#3B4754"/>
<path id="Vector_6" d="M4.25402 13.9287H2.86487V14.2136H4.25402V13.9287Z" fill="#3B4754"/>
<path id="Vector_7" d="M13.2446 13.9287H12.2925V14.2136H13.2446V13.9287Z" fill="#506072"/>
<path id="Vector_8" d="M15.2836 13.9287H13.8945V14.2136H15.2836V13.9287Z" fill="#506072"/>
<path id="Vector_9" d="M17.1783 13.9287H15.7894V14.2136H17.1783V13.9287Z" fill="#506072"/>
<path id="Vector_10" d="M19.0731 13.9287H17.6842V14.2136H19.0731V13.9287Z" fill="#506072"/>
<path id="Vector_11" d="M20.9677 13.9287H19.5789V14.2136H20.9677V13.9287Z" fill="#506072"/>
<path id="Vector_12" d="M22.7561 13.9287H21.5802V14.2136H22.7561V13.9287Z" fill="#506072"/>
<path id="Vector_13" d="M11.5246 13.9287H4.70996V14.2136H11.5246V13.9287Z" fill="#3B4754"/>
<path id="Vector_14" d="M0 14.2139V14.259C0 14.81 0.446564 15.2564 0.997239 15.2564H11.9997V14.2139H0Z" fill="#506072"/>
<path id="Vector_15" d="M11.9998 14.2139V15.2564H23.0028C23.5535 15.2564 24 14.81 24 14.259V14.2139H11.9998Z" fill="#3B4754"/>
<path id="Vector_16" d="M11.7222 1.38613C11.7222 1.23295 11.8455 1.10742 12.001 1.10742C12.1545 1.10742 12.2778 1.23295 12.2778 1.38613C12.2778 1.53977 12.1545 1.6653 12.001 1.6653C11.8455 1.6653 11.7222 1.53977 11.7222 1.38613Z" fill="#3980E8"/>
<path id="Vector_17" d="M10.5876 1.38634C10.5876 1.27431 10.6779 1.18262 10.7917 1.18262C10.9036 1.18262 10.9937 1.27431 10.9937 1.38634C10.9937 1.49912 10.9036 1.59052 10.7917 1.59052C10.6779 1.59052 10.5876 1.49912 10.5876 1.38634Z" fill="#3B4754"/>
</g>
</g>
<defs>
<clipPath id="clip0_44187_80466">
<rect width="24" height="14.5129" fill="white" transform="translate(0 0.743164)"/>
</clipPath>
</defs>
</svg>
