<svg width="97" height="40" viewBox="0 0 97 40" fill="none" xmlns="http://www.w3.org/2000/svg">
<g clip-path="url(#clip0_46607_7509)">
<mask id="mask0_46607_7509" style="mask-type:alpha" maskUnits="userSpaceOnUse" x="0" y="7" width="89" height="32">
<path d="M7.89065 33.0569C10.7436 33.0569 12.9826 31.5756 13.9215 29.4696H14.0118V32.7535H19.212V7H13.9395V16.9052H13.8312C12.8923 14.7814 10.7255 13.3179 7.92676 13.3179C3.06959 13.3179 0 17.0837 0 23.1517C0 29.2733 3.05153 33.0569 7.89065 33.0569ZM9.67823 17.4941C12.2964 17.4941 13.9757 19.7072 13.9757 23.1874C13.9757 26.6854 12.2964 28.8628 9.67823 28.8628C7.02394 28.8628 5.39886 26.7033 5.39886 23.1874C5.39886 19.6893 7.02394 17.4941 9.67823 17.4941Z" fill="url(#paint0_linear_46607_7509)"/>
<path d="M35.5531 26.8996C35.0655 28.3631 33.5849 29.309 31.6529 29.309C28.9625 29.309 27.211 27.435 27.211 24.7044V24.3832H40.5547V22.7948C40.5547 16.9766 36.9976 13.2108 31.364 13.2108C25.6401 13.2108 22.0288 17.1729 22.0288 23.2766C22.0288 29.3982 25.604 33.164 31.5626 33.164C36.3475 33.164 39.8144 30.6475 40.3922 26.8996H35.5531ZM31.4181 17.0658C33.7655 17.0658 35.3725 18.7434 35.4808 21.1885H27.2652C27.4457 18.797 29.1069 17.0658 31.4181 17.0658Z" fill="url(#paint1_linear_46607_7509)"/>
<path d="M61.9154 13.3179C59.1167 13.3179 56.9679 14.71 55.9207 16.9587H55.8123V13.6213H50.6121V39H55.8846V29.541H55.9929C57.0221 31.7005 59.1889 33.0569 62.0057 33.0569C66.8448 33.0569 69.8422 29.3447 69.8422 23.1874C69.8422 17.0123 66.8267 13.3179 61.9154 13.3179ZM60.1459 28.8628C57.5638 28.8628 55.8665 26.6497 55.8665 23.1874C55.8665 19.7607 57.5638 17.4941 60.1459 17.4941C62.7821 17.4941 64.4433 19.725 64.4433 23.1874C64.4433 26.6676 62.7821 28.8628 60.1459 28.8628Z" fill="url(#paint2_linear_46607_7509)"/>
<path d="M72.2437 19.2432C72.2437 22.1166 74.1396 23.9727 77.8773 24.7579L81.1816 25.4361C83.0775 25.8645 83.7456 26.4356 83.7456 27.4529C83.7456 28.7022 82.5178 29.5053 80.5315 29.5053C78.437 29.5053 77.2272 28.6129 76.9022 26.9353H71.7561C72.0992 30.7011 75.1869 33.164 80.5315 33.164C85.5151 33.164 89 30.6832 89 26.9175C89 24.1154 87.3388 22.5449 83.2942 21.7061L79.9899 21.01C78.0398 20.5996 77.3175 19.9392 77.3175 18.9576C77.3175 17.6905 78.5273 16.8695 80.351 16.8695C82.3011 16.8695 83.4747 17.9225 83.6373 19.4752H88.4944C88.3861 15.7273 85.3165 13.2108 80.351 13.2108C75.4216 13.2108 72.2437 15.6023 72.2437 19.2432Z" fill="url(#paint3_linear_46607_7509)"/>
</mask>
<g mask="url(#mask0_46607_7509)">
<rect y="7" width="41" height="26" fill="url(#paint4_linear_46607_7509)"/>
</g>
</g>
<rect x="47" width="3" height="40" rx="1.5" fill="url(#paint5_linear_46607_7509)"/>
<mask id="mask1_46607_7509" style="mask-type:alpha" maskUnits="userSpaceOnUse" x="56" y="12" width="38" height="26">
<rect x="56" y="12" width="38" height="26" fill="url(#paint6_linear_46607_7509)"/>
</mask>
<g mask="url(#mask1_46607_7509)">
<path d="M12.8906 32.0569C15.7436 32.0569 17.9826 30.5756 18.9215 28.4696H19.0118V31.7535H24.212V6H18.9395V15.9052H18.8312C17.8923 13.7814 15.7255 12.3179 12.9268 12.3179C8.06959 12.3179 5 16.0837 5 22.1517C5 28.2733 8.05153 32.0569 12.8906 32.0569ZM14.6782 16.4941C17.2964 16.4941 18.9757 18.7072 18.9757 22.1874C18.9757 25.6854 17.2964 27.8628 14.6782 27.8628C12.0239 27.8628 10.3989 25.7033 10.3989 22.1874C10.3989 18.6893 12.0239 16.4941 14.6782 16.4941Z" fill="url(#paint7_linear_46607_7509)"/>
<path d="M40.5531 25.8996C40.0655 27.3631 38.5849 28.309 36.6529 28.309C33.9625 28.309 32.211 26.435 32.211 23.7044V23.3832H45.5547V21.7948C45.5547 15.9766 41.9976 12.2108 36.364 12.2108C30.6401 12.2108 27.0288 16.1729 27.0288 22.2766C27.0288 28.3982 30.604 32.164 36.5626 32.164C41.3475 32.164 44.8144 29.6475 45.3922 25.8996H40.5531ZM36.4181 16.0658C38.7655 16.0658 40.3725 17.7434 40.4808 20.1885H32.2652C32.4457 17.797 34.1069 16.0658 36.4181 16.0658Z" fill="url(#paint8_linear_46607_7509)"/>
<path d="M66.9154 12.3179C64.1167 12.3179 61.9679 13.71 60.9207 15.9587H60.8123V12.6213H55.6121V38H60.8846V28.541H60.9929C62.0221 30.7005 64.1889 32.0569 67.0057 32.0569C71.8448 32.0569 74.8422 28.3447 74.8422 22.1874C74.8422 16.0123 71.8267 12.3179 66.9154 12.3179ZM65.1459 27.8628C62.5638 27.8628 60.8665 25.6497 60.8665 22.1874C60.8665 18.7607 62.5638 16.4941 65.1459 16.4941C67.7821 16.4941 69.4433 18.725 69.4433 22.1874C69.4433 25.6676 67.7821 27.8628 65.1459 27.8628Z" fill="url(#paint9_linear_46607_7509)"/>
<path d="M77.2437 18.2432C77.2437 21.1166 79.1396 22.9727 82.8773 23.7579L86.1816 24.4361C88.0775 24.8645 88.7456 25.4356 88.7456 26.4529C88.7456 27.7022 87.5178 28.5053 85.5315 28.5053C83.437 28.5053 82.2272 27.6129 81.9022 25.9353H76.7561C77.0992 29.7011 80.1869 32.164 85.5315 32.164C90.5151 32.164 94 29.6832 94 25.9175C94 23.1154 92.3388 21.5449 88.2942 20.7061L84.9899 20.01C83.0398 19.5996 82.3175 18.9392 82.3175 17.9576C82.3175 16.6905 83.5273 15.8695 85.351 15.8695C87.3011 15.8695 88.4747 16.9225 88.6373 18.4752H93.4944C93.3861 14.7273 90.3165 12.2108 85.351 12.2108C80.4216 12.2108 77.2437 14.6023 77.2437 18.2432Z" fill="url(#paint10_linear_46607_7509)"/>
</g>
<defs>
<linearGradient id="paint0_linear_46607_7509" x1="100.125" y1="32.2" x2="-6.06426" y2="15.5942" gradientUnits="userSpaceOnUse">
<stop offset="0.00949925" stop-color="#5DB9FF"/>
<stop offset="0.994653" stop-color="#3980E8"/>
</linearGradient>
<linearGradient id="paint1_linear_46607_7509" x1="100.125" y1="32.2" x2="-6.06426" y2="15.5942" gradientUnits="userSpaceOnUse">
<stop offset="0.00949925" stop-color="#5DB9FF"/>
<stop offset="0.994653" stop-color="#3980E8"/>
</linearGradient>
<linearGradient id="paint2_linear_46607_7509" x1="100.125" y1="32.2" x2="-6.06426" y2="15.5942" gradientUnits="userSpaceOnUse">
<stop offset="0.00949925" stop-color="#5DB9FF"/>
<stop offset="0.994653" stop-color="#3980E8"/>
</linearGradient>
<linearGradient id="paint3_linear_46607_7509" x1="100.125" y1="32.2" x2="-6.06426" y2="15.5942" gradientUnits="userSpaceOnUse">
<stop offset="0.00949925" stop-color="#5DB9FF"/>
<stop offset="0.994653" stop-color="#3980E8"/>
</linearGradient>
<linearGradient id="paint4_linear_46607_7509" x1="46.125" y1="27.475" x2="-3.59902" y2="23.0662" gradientUnits="userSpaceOnUse">
<stop offset="0.00949925" stop-color="#5DB9FF"/>
<stop offset="0.994653" stop-color="#3980E8"/>
</linearGradient>
<linearGradient id="paint5_linear_46607_7509" x1="50.375" y1="31.5" x2="46.7081" y2="31.4845" gradientUnits="userSpaceOnUse">
<stop offset="0.00949925" stop-color="#5DB9FF"/>
<stop offset="0.994653" stop-color="#3980E8"/>
</linearGradient>
<linearGradient id="paint6_linear_46607_7509" x1="98.75" y1="32.475" x2="52.6136" y2="28.6837" gradientUnits="userSpaceOnUse">
<stop offset="0.00949925" stop-color="#5DB9FF"/>
<stop offset="0.994653" stop-color="#3980E8"/>
</linearGradient>
<linearGradient id="paint7_linear_46607_7509" x1="105.125" y1="31.2" x2="-1.06426" y2="14.5942" gradientUnits="userSpaceOnUse">
<stop offset="0.00949925" stop-color="#5DB9FF"/>
<stop offset="0.994653" stop-color="#3980E8"/>
</linearGradient>
<linearGradient id="paint8_linear_46607_7509" x1="105.125" y1="31.2" x2="-1.06426" y2="14.5942" gradientUnits="userSpaceOnUse">
<stop offset="0.00949925" stop-color="#5DB9FF"/>
<stop offset="0.994653" stop-color="#3980E8"/>
</linearGradient>
<linearGradient id="paint9_linear_46607_7509" x1="105.125" y1="31.2" x2="-1.06426" y2="14.5942" gradientUnits="userSpaceOnUse">
<stop offset="0.00949925" stop-color="#5DB9FF"/>
<stop offset="0.994653" stop-color="#3980E8"/>
</linearGradient>
<linearGradient id="paint10_linear_46607_7509" x1="105.125" y1="31.2" x2="-1.06426" y2="14.5942" gradientUnits="userSpaceOnUse">
<stop offset="0.00949925" stop-color="#5DB9FF"/>
<stop offset="0.994653" stop-color="#3980E8"/>
</linearGradient>
<clipPath id="clip0_46607_7509">
<rect width="41" height="26" fill="white" transform="translate(0 7)"/>
</clipPath>
</defs>
</svg>
