<svg width="23" height="24" viewBox="0 0 23 24" fill="none" xmlns="http://www.w3.org/2000/svg">
<path d="M16.375 10.4375H12.4375V6.5C12.4375 6.03516 12.0273 5.625 11.5625 5.625H10.6875C10.1953 5.625 9.8125 6.03516 9.8125 6.5V10.4375H5.875C5.38281 10.4375 5 10.8477 5 11.3125V12.1875C5 12.6797 5.38281 13.0625 5.875 13.0625H9.8125V17C9.8125 17.4922 10.1953 17.875 10.6875 17.875H11.5625C12.0273 17.875 12.4375 17.4922 12.4375 17V13.0625H16.375C16.8398 13.0625 17.25 12.6797 17.25 12.1875V11.3125C17.25 10.8477 16.8398 10.4375 16.375 10.4375Z" fill="#3980E8"/>
</svg>
