<svg width="32" height="32" viewBox="0 0 32 32" fill="none" xmlns="http://www.w3.org/2000/svg">
    <path fill-rule="evenodd" clip-rule="evenodd" d="M17 13.9999C16.7239 13.9999 16.5 14.2237 16.5 14.4999C16.5 14.776 16.7239 14.9999 17 14.9999H26C26.2761 14.9999 26.5 14.776 26.5 14.4999C26.5 14.2237 26.2761 13.9999 26 13.9999H17ZM26.2533 24.2999V21.6999H7.74667V24.2999H26.2533ZM26.36 24.9999C26.7135 24.9999 27 24.7312 27 24.3999V21.5999C27 21.2685 26.7135 20.9999 26.36 20.9999H7.64C7.28654 20.9999 7 21.2685 7 21.5999V24.3999C7 24.7312 7.28654 24.9999 7.64 24.9999H26.36Z" fill="#657181"/>
</svg>
