<svg width="14" height="14" viewBox="0 0 14 14" fill="none" xmlns="http://www.w3.org/2000/svg">
<path d="M10.2266 2.21484C10.3086 2.21484 10.3906 2.1875 10.5 2.1875C12.4141 2.1875 14 3.77344 14 5.6875C14 7.62891 12.4141 9.1875 10.5 9.1875C10.0898 9.1875 9.70703 9.13281 9.35156 9.02344C8.94141 9.89844 8.03906 10.5 7 10.5C5.93359 10.5 5.03125 9.89844 4.62109 9.02344C4.26562 9.13281 3.88281 9.1875 3.5 9.1875C1.55859 9.1875 0 7.62891 0 5.6875C0 3.77344 1.55859 2.1875 3.5 2.1875C3.58203 2.1875 3.66406 2.21484 3.74609 2.21484C4.26562 0.929688 5.52344 0 7 0C8.44922 0 9.70703 0.929688 10.2266 2.21484ZM3.9375 13.125C3.44531 13.125 3.03516 12.8789 2.78906 12.4688C2.54297 12.0859 2.54297 11.5664 2.78906 11.1562C3.03516 10.7734 3.44531 10.5 3.9375 10.5C4.40234 10.5 4.8125 10.7734 5.05859 11.1562C5.30469 11.5664 5.30469 12.0859 5.05859 12.4688C4.8125 12.8789 4.40234 13.125 3.9375 13.125ZM0.875 14C0.382812 14 0 13.6172 0 13.125C0 12.6602 0.382812 12.25 0.875 12.25C1.33984 12.25 1.75 12.6602 1.75 13.125C1.75 13.6172 1.33984 14 0.875 14Z" fill="#506072"/>
</svg>
