<svg width="64" height="32" viewBox="0 0 64 32" fill="none" xmlns="http://www.w3.org/2000/svg">
<g opacity="0.9">
<path fill-rule="evenodd" clip-rule="evenodd" d="M4.64844 23.65C4.64844 23.4567 4.80514 23.3 4.99844 23.3L22.9984 23.3C23.1917 23.3 23.3484 23.4567 23.3484 23.65C23.3484 23.8433 23.1917 24 22.9984 24L4.99844 24C4.80514 24 4.64844 23.8433 4.64844 23.65ZM7.34844 21.3H10.9484L10.9484 8.7H7.34844L7.34844 21.3ZM6.64844 21.4C6.64844 21.7314 6.91707 22 7.24844 22H11.0484C11.3798 22 11.6484 21.7314 11.6484 21.4L11.6484 8.6C11.6484 8.26863 11.3798 8.00001 11.0484 8.00001H7.24844C6.91707 8.00001 6.64844 8.26863 6.64844 8.6L6.64844 21.4ZM17.9484 21.3H14.3484L14.3484 13.7H17.9484V21.3ZM14.2484 22C13.9171 22 13.6484 21.7314 13.6484 21.4L13.6484 13.6C13.6484 13.2686 13.9171 13 14.2484 13H18.0484C18.3798 13 18.6484 13.2686 18.6484 13.6V21.4C18.6484 21.7314 18.3798 22 18.0484 22H14.2484Z" fill="#657181"/>
<path fill-rule="evenodd" clip-rule="evenodd" d="M11.6484 23.65C11.6484 23.4567 11.8051 23.3 11.9984 23.3L29.9984 23.3C30.1917 23.3 30.3484 23.4567 30.3484 23.65C30.3484 23.8433 30.1917 24 29.9984 24L11.9984 24C11.8051 24 11.6484 23.8433 11.6484 23.65ZM24.9484 21.3L21.3484 21.3V15.7558H23.1484H24.9484V21.3ZM21.2484 22C20.9171 22 20.6484 21.7314 20.6484 21.4V15.5C20.6484 15.1686 21.0171 15 21.3484 15H23.1484H24.9484C25.2798 15 25.6484 15.1686 25.6484 15.5V21.4C25.6484 21.7314 25.3798 22 25.0484 22L21.2484 22Z" fill="#657181"/>
</g>
<rect x="38.3516" y="4" width="1" height="24" fill="#DCE1E7"/>
<path d="M49.3323 13.6782C49.4265 13.6782 49.5203 13.7132 49.5921 13.7832L53.3535 17.4559L57.115 13.7837C57.2586 13.6435 57.4911 13.6435 57.6346 13.7837C57.778 13.9238 57.7781 14.1508 57.6346 14.2909L53.6133 18.2169C53.5444 18.2842 53.4509 18.3219 53.3535 18.3219C53.2559 18.3219 53.1626 18.284 53.0937 18.2169L49.0725 14.2906C48.9289 14.1504 48.9289 13.9233 49.0725 13.7834C49.1442 13.7132 49.2384 13.6782 49.3323 13.6782Z" fill="#657181" stroke="#657181" stroke-width="0.3"/>
</svg>
