<svg width="15" height="15" viewBox="0 0 15 15" fill="none" xmlns="http://www.w3.org/2000/svg">
<path d="M8.34375 11.25C8.69922 11.25 9 10.9766 9 10.5938V6H11.3789C11.8711 6 12.1172 5.42578 11.7617 5.07031L7.60547 0.914062C7.41406 0.722656 7.05859 0.722656 6.86719 0.914062L2.71094 5.07031C2.35547 5.42578 2.60156 6 3.09375 6H5.5V10.5938C5.5 10.9766 5.77344 11.25 6.15625 11.25H8.34375ZM14.25 11.0312C14.25 10.6758 13.9492 10.375 13.5938 10.375H9.875V10.5938C9.875 11.4414 9.16406 12.125 8.34375 12.125H6.15625C5.30859 12.125 4.625 11.4414 4.625 10.5938V10.375H0.90625C0.523438 10.375 0.25 10.6758 0.25 11.0312V14.0938C0.25 14.4766 0.523438 14.75 0.90625 14.75H13.5938C13.9492 14.75 14.25 14.4766 14.25 14.0938V11.0312ZM10.8594 13.4375C10.8594 13.7383 10.6133 13.9844 10.3125 13.9844C10.0117 13.9844 9.76562 13.7383 9.76562 13.4375C9.76562 13.1367 10.0117 12.8906 10.3125 12.8906C10.6133 12.8906 10.8594 13.1367 10.8594 13.4375ZM12.6094 13.4375C12.6094 13.7383 12.3633 13.9844 12.0625 13.9844C11.7617 13.9844 11.5156 13.7383 11.5156 13.4375C11.5156 13.1367 11.7617 12.8906 12.0625 12.8906C12.3633 12.8906 12.6094 13.1367 12.6094 13.4375Z" fill="#3980E8"/>
</svg>
